<svg width="778" height="630" viewBox="0 0 778 630" fill="none" xmlns="http://www.w3.org/2000/svg">
<path d="M750.404 205.58C753.333 217.546 755.47 230.046 758.733 241.924C851.675 580.215 591.637 603.666 336.94 628.944C84.961 642.649 -37.5174 521.335 23.4566 361.767C50.612 290.701 51.9683 212.636 48.7295 136.627C45.1014 51.4852 129.669 22.716 292.023 0C472.753 -3.03925e-05 717.392 70.6925 750.404 205.58Z" fill="#DAF1E2"/>
<path d="M607.091 364.62C577.508 364.62 553.433 340.239 553.314 309.903C553.196 279.568 576.549 118.828 606.131 118.712C635.713 118.597 660.322 279.149 660.441 309.485C660.559 339.82 636.674 364.62 607.091 364.62Z" fill="#D4E670"/>
<path d="M606.645 292.585L606.554 269.176L627.229 241.953C627.43 241.688 627.378 241.309 627.113 241.107C626.847 240.906 626.468 240.958 626.267 241.223L605.468 268.608C605.388 268.714 605.345 268.843 605.346 268.976L605.432 291.012L585.785 265.559C585.582 265.295 585.202 265.246 584.938 265.45C584.674 265.653 584.625 266.033 584.829 266.297L605.44 292.999L605.474 301.969C605.475 302.181 605.585 302.368 605.751 302.475L605.816 319.12L585.894 293.309C585.69 293.045 585.311 292.996 585.047 293.2C584.783 293.404 584.734 293.783 584.937 294.047L605.824 321.107L605.922 346.045C605.863 346.141 605.831 346.251 605.832 346.365L605.902 394.935C605.902 395.268 606.172 395.539 606.506 395.539C606.84 395.539 607.11 395.268 607.11 394.935L607.07 354.211C607.127 354.118 607.161 354.008 607.16 353.891L607.131 346.512L628.766 324.152C628.997 323.912 628.992 323.53 628.752 323.299C628.512 323.067 628.129 323.073 627.898 323.312L607.125 344.782L607.031 320.897L606.923 293.148C606.922 293.015 606.878 292.886 606.797 292.781L606.645 292.585Z" fill="#0070AD"/>
<path d="M300.834 71.8224C300.835 71.7492 300.835 71.6762 300.835 71.604C300.793 59.9485 291.546 50.5329 280.18 50.5737C268.814 50.6146 259.633 60.0963 259.675 71.7518C259.675 71.7892 259.676 71.8264 259.676 71.8638C259.791 80.2062 257.03 88.3337 251.858 94.8802C245.099 103.434 241.733 111.273 241.758 118.398C241.77 121.667 242.547 125.37 244.09 129.508C248.006 140.008 246.854 151.728 240.97 161.266C235.269 170.505 232.432 178.733 232.458 185.951C232.475 190.591 233.732 196.012 236.231 202.215C240.461 212.714 239.554 224.585 233.777 234.319C227.037 245.678 223.682 255.607 223.713 264.105C223.829 296.519 249.546 322.592 281.155 322.592C312.765 322.592 338.295 296.108 338.178 263.694C338.148 255.196 334.721 245.292 327.9 233.981C322.054 224.289 321.061 212.425 325.215 201.895C327.67 195.675 328.889 190.245 328.872 185.605C328.846 178.313 325.894 170.031 320.016 160.756C314.019 151.294 312.724 139.594 316.507 129.05C317.969 124.976 318.694 121.333 318.683 118.122C318.657 111.086 315.313 103.352 308.651 94.9189C303.461 88.3507 300.7 80.192 300.834 71.8224Z" fill="#D4E670"/>
<path d="M280.651 227.991L280.545 198.397L301.228 171.181C301.43 170.915 301.378 170.537 301.113 170.335C300.847 170.133 300.468 170.185 300.267 170.45L279.46 197.829C279.379 197.935 279.336 198.064 279.336 198.197L279.438 226.418L259.8 200.958C259.596 200.694 259.217 200.645 258.953 200.849C258.689 201.053 258.639 201.432 258.843 201.696L279.445 228.404L279.455 231.19C279.456 231.403 279.566 231.589 279.732 231.696L279.826 257.929L279.676 258.127C279.596 258.232 279.552 258.362 279.553 258.494L279.632 280.531L259.994 255.071C259.79 254.807 259.411 254.758 259.147 254.962C258.883 255.166 258.834 255.545 259.037 255.809L279.639 282.517L279.671 291.488C279.672 291.7 279.782 291.886 279.948 291.994L280.005 307.814C279.946 307.91 279.914 308.02 279.915 308.134L279.966 356.708C279.966 357.042 280.236 357.312 280.569 357.312C280.903 357.312 281.174 357.042 281.174 356.708L281.151 315.98C281.209 315.887 281.241 315.778 281.241 315.661L281.214 308.281L302.856 285.928C303.088 285.689 303.082 285.306 302.842 285.075C302.602 284.843 302.22 284.849 301.988 285.089L281.208 306.552L281.122 282.667C281.122 282.534 281.078 282.405 280.997 282.3L280.846 282.104L280.774 262.055C280.939 261.947 281.047 261.759 281.047 261.547L281.035 258.334L301.445 231.478C301.647 231.213 301.595 230.834 301.329 230.632C301.064 230.431 300.685 230.483 300.483 230.748L281.028 256.348L280.928 228.554C280.928 228.421 280.883 228.292 280.803 228.187L280.651 227.991Z" fill="#0070AD"/>
<path d="M170.188 348.829C140.605 348.829 116.57 324.351 116.505 294.015C116.439 263.678 140.073 102.977 169.656 102.913C199.239 102.849 223.568 263.447 223.633 293.783C223.699 324.119 199.771 348.829 170.188 348.829Z" fill="#93DF9B"/>
<path d="M169.867 276.789L169.816 253.379L190.539 226.193C190.741 225.927 190.689 225.548 190.424 225.346C190.159 225.144 189.78 225.196 189.578 225.461L168.732 252.81C168.651 252.915 168.608 253.045 168.608 253.177L168.656 275.214L149.053 249.726C148.85 249.462 148.471 249.412 148.207 249.616C147.942 249.819 147.893 250.198 148.096 250.463L168.66 277.201L168.679 286.172C168.68 286.384 168.789 286.57 168.955 286.678L168.991 303.323L149.113 277.477C148.91 277.212 148.531 277.163 148.267 277.366C148.002 277.57 147.953 277.949 148.156 278.213L168.996 305.31L169.05 330.249C168.99 330.344 168.959 330.455 168.959 330.569L168.999 379.144C168.999 379.477 169.269 379.748 169.603 379.748C169.937 379.748 170.207 379.477 170.207 379.144L170.184 338.417C170.241 338.324 170.275 338.214 170.274 338.097L170.258 330.718L191.932 308.395C192.164 308.156 192.159 307.774 191.92 307.542C191.68 307.31 191.298 307.315 191.065 307.554L170.255 328.988L170.203 305.103L170.143 277.352C170.143 277.22 170.098 277.09 170.018 276.985L169.867 276.789Z" fill="#0070AD"/>
<path d="M552.663 466.17C533.95 468.8 525.493 393.881 522.539 372.866C519.586 351.851 532.361 332.683 551.074 330.053C569.787 327.424 587.351 342.328 590.304 363.343C593.258 384.357 571.376 463.54 552.663 466.17Z" fill="#93DF9B"/>
<path d="M555.868 477.3V367.552" stroke="#22537F" stroke-width="2" stroke-linecap="round" stroke-linejoin="round"/>
<path d="M559.27 482.421C545.22 473.98 582.036 416.166 591.973 399.63C601.909 383.093 621.354 376.53 635.404 384.971C649.453 393.413 652.787 413.661 642.85 430.198C632.913 446.735 573.319 490.863 559.27 482.421Z" fill="#D4E670"/>
<path d="M560.178 484.431C555.237 473.836 617.874 446.03 635.359 437.876C652.845 429.723 671.025 431.703 675.967 442.299C680.908 452.895 670.738 468.094 653.253 476.247C635.767 484.401 565.12 495.027 560.178 484.431Z" fill="#93DF9B"/>
<path d="M562.711 483.353L630.352 462.561" stroke="#22537F" stroke-width="2" stroke-linecap="round" stroke-linejoin="round"/>
<path d="M561.659 479.405L615.877 417.294" stroke="#22537F" stroke-width="2" stroke-linecap="round" stroke-linejoin="round"/>
<path d="M561.261 483.518C553.438 492.206 503.367 445.416 489.03 432.507C474.692 419.598 469.411 402.089 477.234 393.401C485.057 384.713 503.023 388.134 517.36 401.043C531.698 413.952 569.084 474.829 561.261 483.518Z" fill="#D4E670"/>
<path d="M553.863 472.903L519.911 430.005" stroke="#22537F" stroke-width="2" stroke-linecap="round" stroke-linejoin="round"/>
<path d="M563.325 483.376C561.307 490.904 511.297 476.628 497.153 472.838C483.01 469.049 473.179 459.874 475.197 452.346C477.214 444.819 490.314 441.788 504.458 445.578C518.601 449.367 565.342 475.849 563.325 483.376Z" fill="#CBEFFC"/>
<path d="M562.448 482.827L504.809 463.088" stroke="#22537F" stroke-width="2" stroke-linecap="round" stroke-linejoin="round"/>
<path d="M223.434 239.516H249.404C261.296 239.516 257.031 226.187 258.133 221.108C255.165 221.108 261.296 214.121 256.868 208.407C255.055 206.07 257.053 204.564 256.868 202.058C248.296 202.058 250.496 207.821 246.744 208.407C241.224 209.27 246.03 197.211 240.417 192.537C237.022 189.708 234.724 188.092 230.928 188.092C225.964 194.44 233.806 204.25 229.663 209.381C227.919 211.541 225.257 209.975 222.703 205.868C221.16 203.384 218.908 203.328 217.641 202.058C213.213 211.582 215.743 219.204 212.581 221.108C213.213 228.726 216.295 239.516 223.434 239.516Z" fill="#F54E56"/>
<path d="M252.189 179.333C256.25 164.731 231.312 169.811 238.172 184.285C239.453 182.24 248.898 175.524 252.189 179.333Z" fill="#F54E56"/>
<path d="M232.368 212.71C232.368 219.093 233.006 224.199 221.517 221.646C219.552 226.213 221.517 236.963 228.202 239.516H244.977C251.515 232.496 248.324 224.837 251.515 219.731C245.771 221.646 245.327 224.199 243.218 224.199C245.771 217.178 238.75 213.987 232.368 212.71Z" fill="#FFD500"/>
<path d="M234.078 369.152C234.05 369.327 234.006 369.499 233.947 369.667C233.396 371.221 231.689 372.033 230.135 371.483C228.095 370.76 226.687 368.885 226.56 366.724L219.078 239.101C219.033 238.326 219.039 237.549 219.095 236.775C219.808 227.02 228.293 219.69 238.048 220.402C238.597 220.442 239.145 220.507 239.689 220.596C249.758 222.245 256.584 231.744 254.934 241.813L234.078 369.152Z" fill="#FFC55F"/>
<path d="M254.335 246.308C253.713 246.559 253.081 246.784 252.441 246.982C233.672 252.799 241.614 245.889 228.304 248.708C225.569 249.288 222.614 248.757 219.729 247.357L219.552 238.695C219.544 238.267 219.55 237.839 219.573 237.412C220.082 227.695 228.372 220.231 238.089 220.74C238.424 220.758 238.758 220.785 239.092 220.821C248.927 221.892 256.032 230.734 254.961 240.57L254.335 246.308Z" fill="#EC961F" fill-opacity="0.25"/>
<path d="M231.872 236.713L239.275 226.179C240.486 224.457 243.07 226.273 241.859 227.996L234.455 238.529C233.245 240.252 230.661 238.436 231.872 236.713Z" fill="#1C2229"/>
<path d="M237.223 240.396L244.627 229.863C245.837 228.14 248.421 229.956 247.211 231.679L239.807 242.213C238.596 243.936 236.012 242.119 237.223 240.396Z" fill="#1C2229"/>
<path d="M230.301 340.101C238.267 336.719 226.862 309.671 224.268 308.08C219.938 305.425 211.25 315.569 209.646 320.814C207.641 327.373 216.84 337.818 221.76 341.989C222.16 342.328 224.279 344.749 224.93 344.734C225.515 344.72 225.212 341.897 225.899 341.701C227.651 341.199 228.981 340.661 230.301 340.101Z" fill="#FFAA83"/>
<path d="M320.297 363.879L315.611 353.382L320.297 363.879Z" stroke="#F54E56" stroke-width="6" stroke-linecap="round" stroke-linejoin="round"/>
<path d="M250.185 322.802C267.794 330.2 293.997 341.679 315.6 353.403C310.005 320.25 306.398 275.919 315.341 262.418C328.267 242.906 341.492 252.963 347.36 266.11C353.093 278.952 366.706 370.768 355.28 393.204C356.42 407.834 346.8 413.258 329.058 406.953C316.508 402.494 287.736 382.327 242.741 346.456C240.421 346.595 237.564 344.743 236.541 342.712C236.269 342.172 236.041 341.578 235.849 340.94C231.533 337.473 227.078 333.872 222.484 330.137C222.303 326.056 222.467 322.76 222.976 320.246C222.954 320.233 222.932 320.22 222.909 320.206C215.625 315.694 230.125 302.949 234.694 305.399C237.731 307.027 241.967 306.964 246.474 312.335C248.442 314.681 249.676 318.514 250.185 322.802Z" fill="#FFAA83"/>
<path d="M220.335 315.552C221.369 314.342 223.222 312.661 225.87 310.542C226.551 309.997 226.661 309.003 226.117 308.322C225.572 307.641 224.578 307.531 223.897 308.076C221.106 310.31 219.125 312.107 217.934 313.5C217.264 314.284 216.813 314.972 216.582 315.62C216.227 316.612 216.373 317.621 217.177 318.315C219.553 320.365 223.34 321.142 228.58 320.081C230.044 319.784 231.311 319.495 232.388 319.208C231.378 322.225 231.351 325.226 232.326 328.173C232.997 330.203 233.712 331.644 234.549 332.538C235.694 333.763 237.2 334.037 238.565 333.146C239.295 332.669 239.501 331.691 239.024 330.96C238.565 330.258 237.643 330.042 236.924 330.45C236.903 330.43 236.88 330.407 236.856 330.381C236.4 329.894 235.863 328.814 235.324 327.181C234.262 323.972 234.724 320.691 236.766 317.228C237.607 315.803 235.968 314.209 234.567 315.089C233.749 315.602 231.488 316.269 227.953 316.986C224.053 317.776 221.401 317.391 219.755 316.311C219.888 316.105 220.082 315.849 220.335 315.552ZM237.02 330.528C237.021 330.528 237.022 330.529 237.021 330.528C237.021 330.528 237.021 330.528 237.02 330.528Z" fill="#F54E56"/>
<g opacity="0.5">
<path d="M223.434 239.516H249.404C261.296 239.516 257.031 226.187 258.133 221.108C255.165 221.108 261.296 214.121 256.868 208.407C255.055 206.07 257.053 204.564 256.868 202.058C248.296 202.058 250.496 207.821 246.744 208.407C241.224 209.27 246.03 197.211 240.417 192.537C237.022 189.708 234.724 188.092 230.928 188.092C225.964 194.44 233.806 204.25 229.663 209.381C227.919 211.541 225.257 209.975 222.703 205.868C221.16 203.384 218.908 203.328 217.641 202.058C213.213 211.582 215.743 219.204 212.581 221.108C213.213 228.726 216.295 239.516 223.434 239.516Z" fill="#F54E56"/>
<path d="M252.189 179.333C256.25 164.731 231.312 169.811 238.172 184.285C239.453 182.24 248.898 175.524 252.189 179.333Z" fill="#F54E56"/>
<path d="M232.368 212.71C232.368 219.093 233.006 224.199 221.517 221.646C219.552 226.213 221.517 236.963 228.202 239.516H244.977C251.515 232.496 248.324 224.837 251.515 219.731C245.771 221.646 245.327 224.199 243.218 224.199C245.771 217.178 238.75 213.987 232.368 212.71Z" fill="#FFD500"/>
</g>
<path d="M329.983 238.003C351.44 217.984 489.1 237.902 498.414 255.704C507.728 273.507 480.474 392.742 454.572 408.269C428.67 423.795 368.373 425.426 345.37 396.792C322.367 368.157 308.527 258.021 329.983 238.003Z" fill="#FFAA83"/>
<path d="M328.528 336.321C316.177 336.861 305.337 332.233 303.647 320.597C300.366 298.005 305.98 258.606 322.333 241.827C328.208 235.8 333.385 233.536 337.756 233.761C346.699 230.674 360.584 229.469 376.534 229.65C389.541 229.798 361.873 315.383 407.444 320.173C465.137 326.237 439.35 235.555 449.148 237.476C474.695 242.486 495.029 249.235 498.414 255.704C506.064 270.326 489.047 353.368 468.371 391.181C463.872 399.408 482.039 435.314 477.411 438.089C454.827 451.626 440.299 449.356 399.356 450.491C358.412 451.626 334.763 431.505 335.416 423.586C336.468 410.83 338.589 391.916 336.061 375.764C334.782 367.596 331.621 353.062 328.528 336.321Z" fill="#498963"/>
<path d="M374.054 268.931C373.954 267.714 374.86 266.648 376.077 266.548C377.294 266.448 378.361 267.353 378.461 268.57C381.03 299.843 390.759 315.941 407.397 317.69C419.16 318.926 428.796 313.957 435.828 303.976C442.141 295.016 445.925 282.434 446.431 269.727C446.48 268.507 447.508 267.558 448.728 267.606C449.948 267.654 450.898 268.683 450.849 269.903C450.312 283.415 446.28 296.818 439.442 306.522C431.531 317.751 420.383 323.5 406.935 322.087C387.652 320.061 376.776 302.066 374.054 268.931Z" fill="white"/>
<path d="M325.413 331.582C318.096 329.861 310.213 325.64 303.256 319.366C302.608 318.782 302.557 317.784 303.141 317.136C303.725 316.489 304.724 316.437 305.371 317.021C312.178 323.159 319.118 326.974 326.221 328.463C326.825 330.615 328.051 331.582 325.413 331.582Z" fill="white"/>
<path d="M329.095 333.954C329.352 334.787 328.885 335.671 328.051 335.929C327.218 336.186 326.334 335.718 326.077 334.885C322.626 323.702 321.188 315.648 321.798 310.598C321.903 309.732 322.689 309.115 323.555 309.22C324.421 309.324 325.038 310.111 324.933 310.977C324.391 315.467 325.766 323.167 329.095 333.954Z" fill="#498963"/>
<path d="M373.062 248.163C367.408 246.371 357.226 237.401 358.842 230.404C360.521 223.134 366.325 218.266 371.805 219.532C372.019 219.581 372.229 219.639 372.434 219.705C372.621 218.525 372.84 217.386 373.092 216.295C379.008 190.673 404.984 174.792 431.111 180.824C457.238 186.856 473.623 212.516 467.707 238.138C461.792 263.76 431.51 305.706 405.383 299.674C388.016 295.665 376.856 271.465 373.062 248.163Z" fill="#FFAA83"/>
<path d="M370.162 224.524C370.997 224.273 371.877 224.747 372.129 225.582C372.38 226.417 371.906 227.298 371.07 227.549C366.243 228.999 365.388 231.119 367.955 235.056C368.432 235.787 368.226 236.765 367.495 237.242C366.765 237.718 365.786 237.512 365.31 236.781C361.562 231.034 363.363 226.566 370.162 224.524Z" fill="#F54E56"/>
<path d="M400.613 218.359L409.5 226.645C410.618 227.688 410.68 229.441 409.636 230.56C408.593 231.678 406.84 231.74 405.722 230.697L396.835 222.41C395.717 221.367 395.655 219.614 396.698 218.495C397.742 217.377 399.495 217.315 400.613 218.359Z" fill="#253238"/>
<path d="M440.303 225.543L451.647 221.188C453.075 220.64 454.678 221.353 455.226 222.781C455.774 224.209 455.06 225.811 453.632 226.359L442.289 230.714C440.861 231.262 439.258 230.549 438.71 229.121C438.162 227.693 438.875 226.09 440.303 225.543Z" fill="#253238"/>
<path d="M425.209 231.368C420.921 241.749 420.143 248.392 422.877 251.297C425.61 254.202 428.234 255.944 430.748 256.525C426.961 259.82 423.507 261.675 420.385 262.091C415.701 262.716 408.434 259.094 413.127 256.317" stroke="#F54E56" stroke-width="6" stroke-linecap="round" stroke-linejoin="round"/>
<path d="M399.389 272.324C398.517 272.309 397.823 271.589 397.839 270.716C397.855 269.844 398.575 269.151 399.447 269.167C410.748 269.374 418.607 275.083 422.769 286.078C423.078 286.894 422.667 287.805 421.851 288.114C421.035 288.423 420.124 288.012 419.815 287.196C416.103 277.392 409.379 272.508 399.389 272.324Z" fill="#F54E56"/>
<path d="M380.471 275.472C380.199 274.643 380.649 273.751 381.477 273.478C382.306 273.206 383.198 273.656 383.471 274.484C387.959 288.115 395.612 296.08 406.492 298.592C417.336 301.096 427.789 296.783 437.993 285.446C438.577 284.798 439.576 284.746 440.224 285.329C440.872 285.912 440.924 286.911 440.341 287.559C429.426 299.686 417.859 304.458 405.782 301.669C393.74 298.89 385.283 290.087 380.471 275.472Z" fill="#F54E56"/>
<path d="M394.177 236.778L402.369 235.194L395.65 230.886C394.916 230.416 394.703 229.439 395.173 228.704C395.644 227.97 396.621 227.757 397.355 228.228L407.396 234.667C408.596 235.436 408.243 237.275 406.843 237.546L394.777 239.879C393.92 240.045 393.092 239.485 392.927 238.629C392.761 237.772 393.321 236.944 394.177 236.778Z" fill="#1C2229"/>
<path d="M443.092 240.949C444.933 241.375 446.081 243.212 445.656 245.053C445.231 246.894 443.394 248.042 441.552 247.617C439.711 247.191 438.563 245.354 438.988 243.513C439.414 241.672 441.251 240.524 443.092 240.949Z" fill="#1C2229"/>
<path d="M354.225 186.157L347.472 183.389C346.343 182.926 345.802 181.635 346.265 180.505C346.729 179.376 348.02 178.835 349.15 179.299L351.7 180.344L349.547 178.347C348.652 177.517 348.598 176.118 349.428 175.223C350.259 174.327 351.658 174.275 352.553 175.105L356.02 178.319C356.224 177.831 356.445 177.355 356.686 176.89C364.259 162.261 369.203 158.43 383.871 164.781C409.149 107.04 447.89 113.868 458.525 144.065C473.44 125.363 487.071 125.562 497.121 132.165L499.525 127.909C500.125 126.845 501.473 126.47 502.537 127.07C503.6 127.67 503.975 129.019 503.375 130.083L500.669 134.875C502.681 136.636 504.506 138.633 506.119 140.734L517.857 132.619C518.861 131.924 520.238 132.175 520.932 133.18C521.627 134.184 521.376 135.562 520.371 136.256L508.643 144.365C508.677 144.419 508.712 144.474 508.745 144.528L517.401 141.651C518.56 141.266 519.812 141.894 520.196 143.052C520.581 144.211 519.954 145.463 518.796 145.847L510.941 148.457C512.104 150.795 512.982 153.065 513.544 155.098C552.388 149.153 568.318 180.922 520.993 200.133C524.361 222.422 496.459 229.1 486.47 223.263C485.881 242.736 469.553 253.269 461.008 253.544C462.918 250.495 466.248 241.315 467.612 235.409C464.632 224.494 462.382 221.342 463.463 208.363C454.801 214.121 438.831 215.635 424.118 217.923C417.569 218.942 396.081 216.445 389.525 207.155C387.27 216.925 387.215 227.123 380.362 240.943C374.805 242.769 377.366 224.849 373.992 221.472C370.021 217.497 364.786 222.175 362.147 223.158C360.672 219.425 352.975 200.838 354.225 186.157Z" fill="#253238"/>
<path d="M513.298 281.493C515.672 292.608 520.63 352.716 504.085 392.211C500.459 400.866 502.501 404.674 499.846 411.377C489.586 437.281 466.195 445.897 458.672 403.247C456.778 392.51 463.62 381.662 463.76 371.7C464.239 337.597 469.821 283.915 482.745 271.224C499.443 254.827 510.29 267.414 513.298 281.493Z" fill="#FFAA83"/>
<path d="M509.728 264.849C512.61 278.673 519.079 301.097 522.822 321.909C526.565 342.72 470.341 368.759 459.364 333.093C448.386 297.428 462.173 257.703 479.417 254.664C496.66 251.625 506.789 250.75 509.728 264.849Z" fill="#498963"/>
<path d="M520.149 325.4C501.635 347.18 480.953 351.182 458.648 337.22C457.909 336.757 457.684 335.783 458.147 335.044C458.61 334.305 459.584 334.08 460.323 334.543C481.255 347.645 500.213 343.977 517.743 323.355C518.308 322.69 519.305 322.61 519.969 323.174C520.634 323.739 520.714 324.736 520.149 325.4Z" fill="white"/>
<path d="M463.254 332.911C463.835 321.223 465.238 313.162 467.539 308.626C467.933 307.848 468.883 307.537 469.661 307.932C470.439 308.326 470.75 309.276 470.356 310.054C468.311 314.087 466.969 321.794 466.408 333.069C466.365 333.939 465.623 334.61 464.753 334.567C463.882 334.523 463.21 333.782 463.254 332.911Z" fill="#498963"/>
<path d="M464.819 372.269L463.693 365.885C463.541 365.026 464.115 364.208 464.974 364.056C465.833 363.905 466.652 364.478 466.803 365.337L467.929 371.721C468.08 372.58 467.507 373.399 466.648 373.55C465.789 373.702 464.97 373.128 464.819 372.269Z" fill="#F54E56"/>
<path d="M496.844 397.059C497.943 391.511 496.503 383.325 492.458 372.579C487.055 360.895 485.123 353.601 486.881 350.081C487.27 349.301 488.219 348.984 488.999 349.374C489.779 349.763 490.096 350.712 489.706 351.492C488.573 353.761 490.381 360.572 495.393 371.412C499.642 382.686 501.182 391.414 499.943 397.672C499.773 398.528 498.942 399.084 498.087 398.915C497.231 398.745 496.675 397.914 496.844 397.059Z" fill="#F54E56"/>
<path d="M430.934 363.03C427.919 360.414 428.522 359.091 426.862 355.487C426.29 354.246 427.49 351.909 427.044 350.568C426.712 349.572 424.88 348.369 424.713 347.329C424.414 345.478 425.419 343.425 425.439 341.473C425.457 339.757 422.92 338.818 423.416 335.951C423.911 333.084 426.563 332.314 427.296 330.717C427.879 329.448 423.533 328.494 426.226 324.648C428.918 320.803 438.417 317.863 443.666 319.299C443.819 328.825 452.17 327.897 456.325 324.295C457.374 323.386 455.997 317.756 457.797 317.438C459.31 317.172 463.255 316.477 465.635 317.702C479.634 324.91 484.773 330.912 486.67 350.342C487.617 360.039 461.248 366.431 451.929 366.14C446.558 365.972 435.293 366.813 430.934 363.03Z" fill="#FFAA83"/>
<path d="M444.19 309.406L457.342 309.867L456.743 330.633L443.592 330.173L444.19 309.406Z" fill="#1E5B89"/>
<path d="M442.244 228.646C465.275 224.585 487.272 239.987 491.333 263.018C495.394 286.048 479.992 308.044 456.962 312.105C433.931 316.165 411.934 300.763 407.873 277.733C403.812 254.702 419.213 232.706 442.244 228.646Z" fill="#4C91FC"/>
<path d="M443.159 233.832C463.615 230.226 483.153 243.907 486.762 264.362C490.37 284.818 476.691 304.353 456.235 307.959C435.779 311.564 416.24 297.883 412.632 277.428C409.023 256.973 422.703 237.437 443.159 233.832Z" fill="white"/>
<path d="M482.791 252.955C482.27 267.844 476.388 288.087 466.945 304.359C463.659 306.051 460.066 307.283 456.235 307.959C435.765 311.567 416.243 297.897 412.632 277.428C409.021 256.958 422.688 237.44 443.159 233.832C459.525 230.947 475.285 239.106 482.791 252.955Z" fill="#FFAA83"/>
<path d="M443.6 234.82C454.757 232.853 465.414 240.316 467.382 251.474C469.35 262.632 461.889 273.288 450.732 275.255C439.575 277.222 428.918 269.759 426.95 258.601C424.982 247.443 432.442 236.787 443.6 234.82Z" fill="white"/>
<path d="M445.947 245.097C451.669 244.088 457.134 247.915 458.144 253.637C459.153 259.359 455.327 264.823 449.605 265.832C443.883 266.84 438.417 263.014 437.408 257.292C436.399 251.57 440.225 246.105 445.947 245.097Z" fill="#22537F"/>
<path d="M446.861 250.281C449.722 249.777 452.455 251.69 452.96 254.551C453.464 257.412 451.551 260.144 448.69 260.648C445.829 261.153 443.096 259.239 442.592 256.379C442.087 253.518 444 250.785 446.861 250.281Z" fill="#1C2229"/>
<path d="M453.256 240.715C455.974 240.237 458.569 242.056 459.048 244.774C459.526 247.492 457.708 250.087 454.99 250.565C452.271 251.043 449.676 249.225 449.198 246.507C448.719 243.789 450.538 241.194 453.256 240.715Z" fill="white"/>
<path d="M583.6 497.284C574.604 473.081 561.431 460.979 544.081 460.979C518.057 460.979 530.602 422.874 503.614 422.874C486.044 422.874 486.045 444.083 460.882 430.911C434.939 417.33 461.846 393.903 412.689 389.405C363.531 384.907 374.824 430.911 354.583 430.911C340.005 430.911 339.066 407.733 326.631 405.851C314.195 403.969 312.494 419.345 303.176 417.418C291.824 415.069 296.108 395.566 268.429 395.566C240.751 395.566 250.164 433.24 243.416 437.376C236.669 441.513 227.995 427.698 218.677 444.083C209.36 460.469 225.501 468.179 211.93 468.179C195.395 468.179 186.271 477.881 184.557 497.284C185.775 503.223 197.148 506.546 218.677 507.253C250.97 508.313 252.423 499.204 292.493 500.828C332.562 502.452 339.353 500.828 396.897 500.828C454.441 500.828 444.225 513.749 488.158 509.823C532.091 505.898 565.756 514.015 590.971 512.394C604.782 511.506 602.326 506.469 583.6 497.284Z" fill="#93DF9B"/>
<path d="M197.199 447.864C198.617 450.485 197.666 453.338 195.075 454.234C192.485 455.131 177.616 457.753 176.198 455.131C174.78 452.509 187.35 445.636 189.94 444.74C192.531 443.843 195.781 445.242 197.199 447.864ZM181.853 438.833C183.271 441.455 182.32 444.308 179.73 445.204C177.139 446.1 162.27 448.723 160.852 446.101C159.434 443.479 172.004 436.606 174.595 435.709C177.186 434.813 180.435 436.211 181.853 438.833ZM168.345 429.327C169.35 432.053 167.906 434.64 165.12 435.105C162.334 435.569 146.764 435.821 145.759 433.095C144.754 430.368 158.694 425.696 161.48 425.231C164.266 424.767 167.339 426.6 168.345 429.327ZM154.169 419.696C154.786 422.459 152.933 424.756 150.031 424.827C147.128 424.898 131.257 423.035 130.64 420.273C130.022 417.51 144.893 414.893 147.795 414.821C150.698 414.75 153.551 416.933 154.169 419.696ZM141.252 407.951C141.62 410.71 139.53 412.803 136.583 412.628C133.636 412.452 117.733 409.283 117.365 406.524C116.996 403.766 132.302 402.462 135.249 402.638C138.196 402.814 140.883 405.193 141.252 407.951ZM128.758 396.686C128.571 399.361 126.017 400.952 123.052 400.24C120.088 399.527 104.539 393.585 104.726 390.91C104.913 388.235 120.764 389.839 123.728 390.552C126.693 391.264 128.945 394.011 128.758 396.686ZM118.525 384.885C117.597 387.289 114.563 388.105 111.749 386.706C108.935 385.308 94.7852 375.954 95.7137 373.55C96.6423 371.146 112.297 376.601 115.111 378C117.925 379.399 119.454 382.481 118.525 384.885ZM110.483 370.273C108.961 372.309 105.678 372.405 103.151 370.488C100.623 368.571 88.4711 356.768 89.9929 354.732C91.5147 352.696 106.135 361.198 108.662 363.115C111.19 365.032 112.005 368.237 110.483 370.273ZM115.655 365.761C113.432 365.19 111.781 363.023 111.969 360.92C112.156 358.818 114.95 348.147 117.173 348.718C119.396 349.289 120.207 360.886 120.019 362.988C119.832 365.09 117.878 366.332 115.655 365.761ZM124.451 380.445C122.222 380.092 120.371 378.061 120.319 375.909C120.267 373.756 121.799 362.646 124.029 363C126.259 363.353 128.342 375.036 128.395 377.188C128.447 379.341 126.681 380.798 124.451 380.445ZM134.119 393.593C131.888 393.203 130.07 391.148 130.058 389.002C130.046 386.857 131.79 375.811 134.02 376.201C136.25 376.591 138.123 388.269 138.135 390.414C138.148 392.56 136.349 393.983 134.119 393.593ZM146.145 407.042C143.928 406.873 141.928 404.972 141.676 402.796C141.425 400.621 141.892 389.237 144.109 389.406C146.327 389.575 149.454 401.233 149.705 403.409C149.956 405.584 148.363 407.211 146.145 407.042ZM158.909 417.146C156.682 416.866 154.77 414.886 154.638 412.722C154.507 410.559 155.614 399.329 157.84 399.609C160.067 399.889 162.571 411.573 162.702 413.736C162.834 415.899 161.135 417.426 158.909 417.146ZM169.823 425.224C167.607 424.581 166.028 422.374 166.295 420.294C166.561 418.213 169.769 407.714 171.985 408.357C174.2 408.999 174.584 420.538 174.317 422.619C174.05 424.699 172.039 425.866 169.823 425.224ZM181.058 432.287C178.873 431.471 177.479 429.175 177.943 427.16C178.406 425.144 182.632 415.134 184.817 415.95C187.001 416.766 186.316 428.101 185.853 430.117C185.389 432.132 183.242 433.104 181.058 432.287ZM195.669 441.908C193.443 441.373 191.758 439.227 191.905 437.114C192.052 435.002 194.637 424.25 196.864 424.785C199.09 425.319 200.113 436.939 199.966 439.052C199.818 441.164 197.895 442.443 195.669 441.908Z" fill="#D4E670"/>
<path d="M221.985 456.416C222.705 456.771 223.093 457.571 222.852 458.202C222.611 458.833 221.832 459.056 221.112 458.701C161.717 429.371 125.038 398.312 111.168 365.44C110.87 364.732 111.193 364.034 111.891 363.88C112.589 363.725 113.397 364.174 113.696 364.882C127.196 396.878 163.261 427.417 221.985 456.416Z" fill="#465197"/>
<path d="M238.644 446.539C239.117 449.263 237.137 451.4 234.221 451.312C231.306 451.224 215.481 448.55 215.008 445.826C214.535 443.102 229.592 441.36 232.508 441.448C235.424 441.536 238.171 443.815 238.644 446.539ZM226.178 434.875C226.254 437.56 223.919 439.349 220.964 438.87C218.009 438.391 202.296 433.678 202.221 430.993C202.145 428.307 217.735 428.666 220.69 429.145C223.645 429.624 226.102 432.189 226.178 434.875ZM215.401 421.478C215.227 424.113 212.694 425.666 209.743 424.947C206.792 424.228 191.305 418.286 191.479 415.651C191.653 413.016 207.421 414.687 210.372 415.406C213.323 416.125 215.575 418.843 215.401 421.478ZM204.955 408.615C204.239 411.069 201.338 412.064 198.475 410.84C195.613 409.615 181.034 401.138 181.75 398.685C182.466 396.231 198.205 400.73 201.067 401.954C203.93 403.179 205.671 406.162 204.955 408.615ZM194.642 394.392C192.901 396.187 189.587 395.925 187.241 393.807C184.895 391.689 173.883 379.017 175.625 377.222C177.366 375.427 191.202 385.188 193.548 387.306C195.894 389.424 196.383 392.596 194.642 394.392ZM189.251 378.315C186.811 379.256 183.581 377.877 182.035 375.235C180.49 372.593 174.284 357.839 176.723 356.897C179.163 355.956 189.325 369.184 190.87 371.826C192.416 374.468 191.691 377.374 189.251 378.315ZM197.237 375.771C195.248 374.514 194.429 372.089 195.409 370.353C196.389 368.617 203.188 360.443 205.177 361.699C207.167 362.956 203.592 373.168 202.612 374.904C201.633 376.64 199.226 377.028 197.237 375.771ZM203.731 392.727C201.558 391.982 200.1 389.736 200.475 387.709C200.85 385.683 204.598 375.555 206.772 376.299C208.945 377.044 208.721 388.38 208.346 390.407C207.97 392.433 205.905 393.472 203.731 392.727ZM210.943 406.818C208.777 406.039 207.356 403.775 207.77 401.762C208.185 399.75 212.135 389.722 214.301 390.501C216.468 391.28 216.031 402.571 215.617 404.584C215.202 406.597 213.11 407.597 210.943 406.818ZM220.485 421.636C218.288 421.065 216.652 418.911 216.829 416.825C217.007 414.739 219.731 404.156 221.928 404.727C224.124 405.298 224.963 416.807 224.785 418.893C224.607 420.979 222.681 422.207 220.485 421.636ZM231.423 433.482C229.239 432.806 227.708 430.594 228.004 428.542C228.301 426.49 231.642 416.17 233.827 416.846C236.011 417.522 236.212 428.938 235.916 430.99C235.619 433.042 233.608 434.158 231.423 433.482ZM240.885 443.087C238.784 442.077 237.635 439.718 238.319 437.818C239.003 435.918 244.328 426.677 246.43 427.688C248.532 428.698 246.613 439.578 245.929 441.478C245.245 443.377 242.987 444.098 240.885 443.087Z" fill="#93DF9B"/>
<path d="M266.354 462.521C267.034 462.958 267.322 463.772 266.997 464.338C266.673 464.905 265.858 465.012 265.177 464.575C225.13 438.877 201.14 409.458 193.335 376.373C193.166 375.657 193.625 375.069 194.359 375.058C195.094 375.047 195.827 375.618 195.996 376.334C203.601 408.566 227.012 437.276 266.354 462.521Z" fill="#465197"/>
<path d="M428.307 411.273C429.992 411.302 431.325 413.244 431.284 415.61C431.243 417.976 429.658 430.483 427.973 430.454C426.288 430.425 425.141 417.87 425.182 415.504C425.223 413.138 426.622 411.243 428.307 411.273Z" fill="white"/>
<path d="M415.658 422.463C417.072 421.545 419.262 422.41 420.551 424.394C421.84 426.379 427.521 437.634 426.107 438.552C424.694 439.47 416.722 429.703 415.433 427.718C414.144 425.734 414.245 423.381 415.658 422.463Z" fill="white"/>
<path d="M408.506 434.331C409.944 432.789 412.866 433.176 415.031 435.196C417.197 437.215 427.5 449.16 426.062 450.702C424.624 452.245 411.989 442.8 409.823 440.78C407.658 438.761 407.068 435.874 408.506 434.331Z" fill="white"/>
<path d="M404.412 447.215C405.893 445.32 409.251 445.47 411.912 447.549C414.573 449.628 427.466 462.175 425.985 464.069C424.505 465.964 409.212 456.49 406.55 454.411C403.889 452.332 402.932 449.11 404.412 447.215Z" fill="white"/>
<path d="M399.654 462.799C401.103 460.481 404.916 460.251 408.172 462.285C411.427 464.319 427.492 476.971 426.043 479.289C424.595 481.607 406.181 472.714 402.926 470.68C399.67 468.645 398.205 465.117 399.654 462.799Z" fill="white"/>
<path d="M394.311 480.37C395.403 477.526 399.526 476.463 403.52 477.997C407.515 479.53 427.781 489.955 426.689 492.799C425.598 495.643 403.561 489.829 399.567 488.296C395.572 486.763 393.219 483.214 394.311 480.37Z" fill="white"/>
<path d="M440.532 422.463C441.946 423.381 442.047 425.734 440.758 427.718C439.469 429.703 431.497 439.47 430.084 438.552C428.67 437.634 434.35 426.379 435.64 424.394C436.929 422.41 439.119 421.545 440.532 422.463Z" fill="white"/>
<path d="M447.685 434.331C449.123 435.874 448.533 438.761 446.367 440.78C444.202 442.8 431.566 452.245 430.128 450.702C428.69 449.16 438.994 437.215 441.159 435.196C443.325 433.176 446.247 432.789 447.685 434.331Z" fill="white"/>
<path d="M451.778 447.215C453.259 449.11 452.301 452.332 449.64 454.411C446.978 456.49 431.686 465.964 430.205 464.069C428.724 462.175 441.617 449.628 444.278 447.549C446.94 445.47 450.297 445.32 451.778 447.215Z" fill="white"/>
<path d="M456.537 462.799C457.985 465.117 456.52 468.645 453.265 470.68C450.01 472.714 431.596 481.607 430.147 479.289C428.698 476.971 444.764 464.319 448.019 462.285C451.274 460.251 455.088 460.481 456.537 462.799Z" fill="white"/>
<path d="M461.879 480.37C462.971 483.214 460.618 486.763 456.624 488.296C452.63 489.829 430.593 495.643 429.501 492.799C428.41 489.955 448.676 479.53 452.67 477.997C456.664 476.463 460.788 477.526 461.879 480.37Z" fill="white"/>
<path d="M427.719 435.112C427.719 434.822 427.955 434.586 428.245 434.586C428.536 434.586 428.772 434.822 428.772 435.112V504.856C428.772 505.147 428.536 505.382 428.245 505.382C427.955 505.382 427.719 505.147 427.719 504.856V435.112Z" fill="white"/>
<path d="M488.072 442.702C489.179 443.172 489.542 444.812 488.882 446.367C488.222 447.921 483.831 455.772 482.724 455.302C481.617 454.832 484.214 446.219 484.874 444.665C485.534 443.111 486.965 442.232 488.072 442.702Z" fill="white"/>
<path d="M476.713 446.724C477.894 446.494 479.112 447.652 479.434 449.31C479.756 450.967 480.506 459.931 479.325 460.161C478.144 460.39 475.481 451.798 475.159 450.14C474.837 448.483 475.532 446.953 476.713 446.724Z" fill="white"/>
<path d="M468.808 452.664C470.172 452.028 472.002 453.065 472.895 454.98C473.787 456.895 477.412 467.551 476.048 468.187C474.684 468.823 468.849 459.197 467.956 457.282C467.063 455.368 467.444 453.299 468.808 452.664Z" fill="white"/>
<path d="M462.656 460.094C464.142 459.236 466.324 460.232 467.529 462.319C468.734 464.406 473.909 476.152 472.423 477.01C470.937 477.868 463.352 467.512 462.147 465.425C460.942 463.338 461.17 460.952 462.656 460.094Z" fill="white"/>
<path d="M455.343 469.132C456.921 467.985 459.505 468.852 461.115 471.068C462.725 473.284 469.972 485.948 468.393 487.094C466.815 488.241 457.011 477.436 455.401 475.22C453.79 473.004 453.765 470.278 455.343 469.132Z" fill="white"/>
<path d="M447.111 479.328C448.593 477.739 451.606 478.138 453.838 480.22C456.071 482.301 466.692 494.615 465.21 496.205C463.728 497.794 450.702 488.058 448.469 485.976C446.237 483.895 445.629 480.918 447.111 479.328Z" fill="white"/>
<path d="M493.169 453.372C493.858 454.357 493.297 455.941 491.913 456.909C490.53 457.878 482.645 462.208 481.955 461.223C481.266 460.239 488.032 454.311 489.416 453.342C490.799 452.374 492.479 452.387 493.169 453.372Z" fill="white"/>
<path d="M494.729 463.136C495.268 464.541 494.106 466.293 492.133 467.05C490.16 467.808 479.277 470.678 478.738 469.274C478.199 467.869 488.207 462.721 490.18 461.963C492.153 461.206 494.19 461.731 494.729 463.136Z" fill="white"/>
<path d="M493.992 472.754C494.465 474.403 492.971 476.279 490.654 476.943C488.338 477.607 475.688 479.787 475.215 478.138C474.742 476.488 486.625 471.634 488.942 470.97C491.259 470.305 493.519 471.104 493.992 472.754Z" fill="white"/>
<path d="M492.975 484.336C493.314 486.256 491.401 488.199 488.704 488.675C486.007 489.15 471.447 490.112 471.109 488.191C470.77 486.271 484.78 482.195 487.478 481.719C490.175 481.243 492.637 482.415 492.975 484.336Z" fill="white"/>
<path d="M491.813 497.388C491.775 499.561 489.27 501.28 486.218 501.227C483.165 501.174 467.032 499.13 467.07 496.956C467.108 494.783 483.302 493.303 486.355 493.357C489.407 493.41 491.851 495.215 491.813 497.388Z" fill="white"/>
<path d="M481.206 458.274C481.315 458.004 481.622 457.874 481.891 457.983C482.161 458.092 482.291 458.398 482.182 458.668L463.539 504.809C463.43 505.078 463.123 505.209 462.854 505.1C462.584 504.991 462.454 504.684 462.563 504.414L481.206 458.274Z" fill="white"/>
<path d="M488.066 507.82C483.038 499.825 471.565 495.827 453.646 495.827C426.767 495.827 431.562 481.322 403.688 481.322C375.814 481.322 392.562 426.504 324.789 423.604C257.016 420.704 272.359 455.512 251.453 455.512C230.548 455.512 219.307 438.456 193.714 439.66C168.121 440.865 157.797 479.157 147.51 481.322C137.223 483.487 144.855 473.745 116.649 473.745C97.8446 473.745 84.5712 481.106 76.8285 495.827C66.0407 503.823 77.2391 507.82 110.423 507.82C122.64 507.82 156.287 503.925 193.714 502.841C214.835 502.23 253.395 513.882 301.892 513.882C324.789 513.882 344.41 508.676 389.166 507.82C419.002 507.249 451.97 507.249 488.066 507.82Z" fill="#D4E670"/>
</svg>
