<svg width="752" height="564" viewBox="0 0 752 564" fill="none" xmlns="http://www.w3.org/2000/svg">
<g clip-path="url(#clip0_118_6947)">
<path d="M296.549 125.765H238.317C234.203 125.765 230.868 122.43 230.868 118.316V63.9144C230.868 60.7953 233.396 58.2671 236.516 58.2671H296.549C299.668 58.2671 302.196 60.7953 302.196 63.9144V120.118C302.196 123.237 299.668 125.765 296.549 125.765Z" fill="#56DFED"/>
<path d="M283.178 97.0082L279.116 92.9467C278.391 92.1486 277.447 91.7141 276.505 91.7141C275.562 91.7141 274.619 92.1486 273.894 92.8741L271.573 95.1951C271.428 95.1226 271.283 95.05 271.138 94.9775C270.848 94.8323 270.63 94.7598 270.413 94.6147C268.237 93.2369 266.278 91.4238 264.393 89.1028C263.522 88.0153 262.87 87.0004 262.507 86.1297C263.088 85.6218 263.595 85.0413 264.103 84.5334C264.32 84.3157 264.538 84.0989 264.756 83.8812C265.554 83.0831 265.988 82.1398 265.988 81.1974C265.988 80.2542 265.554 79.3127 264.756 78.5145L262.725 76.4838C262.507 76.2661 262.289 76.0484 262.072 75.7582C261.636 75.3228 261.129 74.8158 260.694 74.3804C259.968 73.6548 259.026 73.2195 258.083 73.2195C257.14 73.2195 256.271 73.5823 255.472 74.3804L252.934 76.9182C251.991 77.8606 251.411 79.095 251.266 80.4727C251.121 82.6486 251.7 84.6794 252.208 85.9846C253.368 89.3205 255.181 92.2945 257.865 95.4854C261.129 99.3292 264.973 102.375 269.47 104.551C271.138 105.349 273.458 106.291 275.997 106.509C276.142 106.509 276.287 106.509 276.505 106.509C278.245 106.509 279.697 105.856 280.857 104.623C280.857 104.623 280.857 104.623 280.929 104.551C281.292 104.115 281.726 103.681 282.234 103.246C282.525 102.955 282.887 102.593 283.178 102.303C284.7 100.708 284.7 98.5311 283.178 97.0082ZM281.51 100.78C281.219 101.07 280.929 101.36 280.639 101.65C280.131 102.086 279.697 102.593 279.189 103.101C278.463 103.826 277.665 104.188 276.577 104.188C276.432 104.188 276.36 104.188 276.215 104.188C274.039 104.043 272.008 103.173 270.558 102.447C266.424 100.417 262.797 97.5887 259.752 93.9625C257.286 90.9885 255.617 88.1604 254.457 85.1864C253.731 83.4459 253.442 82.0673 253.587 80.6895C253.659 79.8914 253.949 79.1676 254.602 78.5871L257.068 76.121C257.286 75.9033 257.647 75.613 258.083 75.613C258.518 75.613 258.808 75.8307 259.099 76.121C259.534 76.5563 259.968 76.9908 260.404 77.4261C260.622 77.6438 260.839 77.934 261.129 78.1517L263.16 80.1825C263.378 80.4002 263.668 80.8346 263.668 81.1974C263.668 81.6328 263.378 81.9956 263.16 82.2132C262.943 82.4309 262.725 82.6477 262.507 82.8654C261.854 83.5184 261.275 84.098 260.694 84.6785C260.694 84.6785 260.694 84.6785 260.622 84.7511C259.896 85.4766 260.041 86.1288 260.186 86.5642V86.6367C260.694 87.9419 261.491 89.1028 262.58 90.5531C264.61 93.0918 266.786 95.05 269.18 96.5729C269.47 96.7906 269.832 96.9357 270.122 97.0808C270.413 97.2259 270.63 97.2985 270.848 97.4436L270.92 97.5161C271.646 97.8789 272.371 97.7338 272.951 97.1533L275.489 94.6147C275.707 94.397 276.07 94.1076 276.505 94.1076C276.868 94.1076 277.23 94.397 277.448 94.6147L281.51 98.6762C282.163 99.3292 282.163 100.054 281.51 100.78Z" fill="white"/>
<path d="M140.715 128.133H26.6883C24.3324 128.133 22.4231 126.224 22.4231 123.868C22.4231 121.512 24.3324 119.603 26.6883 119.603H140.715C143.071 119.603 144.981 121.512 144.981 123.868C144.981 126.224 143.071 128.133 140.715 128.133Z" fill="#F5A623"/>
<path d="M572.202 123.728H458.146C456.692 123.728 455.513 122.549 455.513 121.095V92.1082C455.513 90.6544 456.692 89.4751 458.146 89.4751H572.202C573.656 89.4751 574.835 90.6535 574.835 92.1073V121.095C574.835 122.549 573.656 123.728 572.202 123.728Z" fill="#F8E71C"/>
<path d="M468.511 119.853V133.202L485.299 119.853H468.511Z" fill="#F8E71C"/>
<path d="M471.766 101.679L505.944 101.693" stroke="white" stroke-width="1.0974" stroke-miterlimit="10"/>
<path d="M471.765 109.895L500.429 109.887" stroke="white" stroke-width="1.0974" stroke-miterlimit="10"/>
<path d="M733.654 406.665H678.309C675.953 406.665 674.044 404.755 674.044 402.399C674.044 400.043 675.953 398.133 678.309 398.133H733.654C736.01 398.133 737.919 400.043 737.919 402.399C737.919 404.755 736.01 406.665 733.654 406.665Z" fill="#382560"/>
<path d="M691.552 449.679H691.47C691.456 449.679 691.445 449.668 691.445 449.654V449.576C691.445 449.562 691.456 449.551 691.47 449.551H691.552C691.566 449.551 691.577 449.562 691.577 449.576V449.654C691.577 449.668 691.566 449.679 691.552 449.679Z" fill="#F5A623"/>
<path d="M51.4456 480.689H49.4906C49.1612 480.689 48.894 480.422 48.894 480.093V478.237C48.894 477.907 49.1612 477.64 49.4906 477.64H51.4456C51.7751 477.64 52.0422 477.907 52.0422 478.237V480.093C52.0422 480.422 51.7751 480.689 51.4456 480.689Z" fill="black"/>
<path d="M94.4939 197.007H656.056" stroke="#DED8D5" stroke-width="1.83024" stroke-miterlimit="10"/>
<path d="M650.355 507.639H100.195C97.0457 507.639 94.4939 505.087 94.4939 501.938V165.896C94.4939 162.747 97.0457 160.195 100.195 160.195H650.355C653.504 160.195 656.056 162.747 656.056 165.896V501.938C656.056 505.087 653.504 507.639 650.355 507.639Z" stroke="#DED8D5" stroke-width="1.83024" stroke-miterlimit="10"/>
<path d="M131.503 178.977C131.503 181.813 129.203 184.113 126.366 184.113C123.53 184.113 121.229 181.813 121.229 178.977C121.229 176.14 123.53 173.84 126.366 173.84C129.203 173.84 131.503 176.14 131.503 178.977Z" fill="#FFB1A5"/>
<path d="M151.466 178.977C151.466 181.813 149.166 184.113 146.329 184.113C143.493 184.113 141.193 181.813 141.193 178.977C141.193 176.14 143.493 173.84 146.329 173.84C149.166 173.84 151.466 176.14 151.466 178.977Z" fill="#EAD254"/>
<path d="M171.429 178.977C171.429 181.813 169.129 184.113 166.293 184.113C163.456 184.113 161.157 181.813 161.157 178.977C161.157 176.14 163.456 173.84 166.293 173.84C169.129 173.84 171.429 176.14 171.429 178.977Z" fill="#00857B"/>
<path d="M730.508 320.996H595.529C592.637 320.996 590.292 318.652 590.292 315.759V190.7C590.292 187.808 592.637 185.463 595.529 185.463H730.508C733.4 185.463 735.744 187.808 735.744 190.7V315.759C735.744 318.652 733.4 320.996 730.508 320.996Z" fill="#EDEDED"/>
<path d="M730.508 320.996H595.529C592.637 320.996 590.292 318.652 590.292 315.759V190.7C590.292 187.808 592.637 185.463 595.529 185.463H730.508C733.4 185.463 735.744 187.808 735.744 190.7V315.759C735.744 318.652 733.4 320.996 730.508 320.996Z" stroke="#DED8D5" stroke-width="1.83024" stroke-miterlimit="10"/>
<path d="M627.429 285.74H699.039C701.947 285.74 704.303 283.383 704.303 280.476V221.244C704.303 218.337 701.947 215.98 699.039 215.98H627.429C624.521 215.98 622.165 218.337 622.165 221.244V280.476C622.165 283.383 624.521 285.74 627.429 285.74Z" fill="#C98BD2"/>
<path d="M681.971 262.46H649.864H644.066V237.039H681.971V243.394V262.46Z" stroke="white" stroke-width="1.53171" stroke-linecap="round" stroke-linejoin="round"/>
<path d="M644.066 237.039L663.019 251.975L681.971 237.039" stroke="white" stroke-width="1.53171" stroke-linecap="round" stroke-linejoin="round"/>
<path d="M149.647 423.206H20.9203C18.1622 423.206 15.926 420.969 15.926 418.211V305.613C15.926 302.855 18.1622 300.618 20.9203 300.618H149.647C152.405 300.618 154.641 302.854 154.641 305.612V418.211C154.641 420.969 152.405 423.206 149.647 423.206Z" fill="#EDEDED"/>
<path d="M149.647 423.206H20.9203C18.1622 423.206 15.926 420.969 15.926 418.211V305.613C15.926 302.855 18.1622 300.618 20.9203 300.618H149.647C152.405 300.618 154.641 302.854 154.641 305.612V418.211C154.641 420.969 152.405 423.206 149.647 423.206Z" stroke="#DED8D5" stroke-width="1.83024" stroke-miterlimit="10"/>
<path d="M119.259 399.588H50.6554C47.4497 399.588 44.8516 396.99 44.8516 393.784V327.418C44.8516 324.212 47.4497 321.614 50.6554 321.614H119.259C122.465 321.614 125.063 324.212 125.063 327.418V393.784C125.063 396.99 122.465 399.588 119.259 399.588Z" fill="#CF801C"/>
<path d="M100.912 344.741C91.8016 336.247 77.353 336.754 68.859 345.863C60.366 354.974 60.872 369.423 69.9815 377.916C79.0911 386.41 93.5415 385.903 102.035 376.793C110.528 367.684 110.022 353.235 100.912 344.741ZM98.7687 376.856L98.5158 369.633C100.759 368.83 102.996 367.816 105.224 366.586C104.151 370.629 101.866 374.196 98.7687 376.856ZM86.4807 352.96C89.4093 352.861 92.3508 353.104 95.3056 353.726L95.8133 368.223C92.9093 369.05 89.992 369.499 87.0636 369.605L86.4807 352.96ZM84.4098 369.609C81.4743 369.511 78.5263 369.083 75.5688 368.359L75.1012 355.006C78.0008 354.077 80.9116 353.444 83.8331 353.142L84.4098 369.609ZM105.894 360.613C105.932 361.702 105.884 362.774 105.756 363.823C103.326 365.298 100.887 366.473 98.4365 367.37L97.982 354.393C100.489 355.115 103.005 356.118 105.532 357.419C105.733 358.457 105.856 359.523 105.894 360.613ZM104.808 354.701C102.499 353.629 100.197 352.775 97.9028 352.13L97.6499 344.908C100.925 347.345 103.454 350.742 104.808 354.701ZM94.937 343.2L95.2267 351.473C92.2719 350.85 89.3292 350.572 86.3988 350.621L86.0576 340.879C89.2466 340.971 92.2628 341.798 94.937 343.2ZM74.7125 343.908C77.2812 342.322 80.233 341.287 83.4069 340.972L83.7495 350.755C80.826 351.001 77.9138 351.569 75.0114 352.443L74.7125 343.908ZM72.1249 345.802L72.3881 353.318C70.1183 354.147 67.8542 355.16 65.5971 356.352C66.6376 352.193 68.9566 348.524 72.1249 345.802ZM64.9996 362.045C64.9678 361.137 64.9958 360.24 65.0805 359.36C67.5398 358.023 70.0056 356.871 72.4795 355.927L72.8891 367.623C70.3552 366.855 67.8149 365.878 65.2681 364.717C65.1221 363.844 65.0314 362.953 64.9996 362.045ZM65.9939 367.682C68.3288 368.713 70.6574 369.565 72.9805 370.234L73.2437 377.75C69.8928 375.256 67.3227 371.758 65.9939 367.682ZM75.9575 379.458L75.6586 370.923C78.6141 371.592 81.5599 371.955 84.4934 371.995L84.836 381.778C81.6478 381.686 78.6309 380.861 75.9575 379.458ZM87.4867 381.685L87.1455 371.943C90.0722 371.787 92.9882 371.304 95.8922 370.477L96.182 378.749C93.6124 380.335 90.6614 381.37 87.4867 381.685Z" fill="white"/>
<path d="M555.898 321.452C552.385 315.847 532.659 316.045 531.618 315.923C526.285 315.298 535.037 357.734 546.131 394.828C548.258 401.94 556.083 405.645 562.917 402.747C562.991 402.715 563.064 402.684 563.138 402.652C568.544 400.362 571.621 394.624 570.533 388.854C565.257 360.864 559.959 327.934 555.898 321.452Z" fill="#FFB1A5"/>
<path d="M560.6 336.797L535.413 346.571L533.052 334.62L559.132 328.115L560.6 336.797Z" fill="#FFB1A5"/>
<path d="M565.356 360.703C565.356 360.703 553.424 376.727 553.993 375.99C554.562 375.253 563.35 350.095 563.35 350.095L565.356 360.703Z" fill="#FFB1A5"/>
<path d="M582.415 339.165L548.216 383.476C543.726 389.294 545.159 397.706 551.323 401.707L551.324 401.707C557.478 405.702 565.73 403.602 569.226 397.152L597.693 344.631L582.415 339.165Z" fill="#FFB1A5"/>
<path d="M591.267 350.545C583.853 348.149 579.784 340.198 582.179 332.784C584.575 325.37 592.526 321.301 599.941 323.696C607.355 326.092 611.423 334.043 609.028 341.458C606.632 348.872 598.681 352.94 591.267 350.545Z" fill="#FFB1A5"/>
<path d="M605.89 328.64C605.89 328.64 609.751 324.631 602.901 321.822C596.053 319.013 587.586 319.657 582.179 332.784L605.89 328.64Z" fill="#FFB1A5"/>
<path d="M612.985 300.638L627.305 306.845C628.101 307.191 628.392 308.136 627.953 308.956L609.114 344.142C608.676 344.962 607.674 345.347 606.877 345.002L592.557 338.793C591.761 338.448 591.471 337.503 591.91 336.683L610.748 301.496C611.187 300.676 612.188 300.292 612.985 300.638Z" fill="#372F5F"/>
<path d="M611.618 300.015L625.937 306.223C626.733 306.568 627.024 307.513 626.585 308.333L607.746 343.52C607.308 344.34 606.306 344.724 605.509 344.378L591.19 338.171C590.394 337.825 590.103 336.88 590.542 336.06L609.38 300.874C609.819 300.054 610.821 299.669 611.618 300.015Z" fill="#261B43"/>
<path d="M610.002 303.594L622.584 309.05L607.231 337.727L594.649 332.272L610.002 303.594Z" fill="#E6E6E6"/>
<path d="M622.584 309.05L594.649 332.272L610.002 303.594L622.584 309.05Z" fill="white"/>
<path d="M598.79 320.654C598.79 320.654 601.978 321.277 604.856 322.906C606.124 323.624 606.773 325.087 606.422 326.501C606.101 327.79 605.021 328.75 603.703 328.916L596.258 329.855C596.258 329.855 592.374 336.55 587.299 337.302L591.955 325.547L598.79 320.654Z" fill="#FFB1A5"/>
<path d="M531.926 381.324L490.878 375.858L491.199 379.934L456.104 384.608C456.104 384.608 433.482 441.363 453.419 566.182H481.967L492.243 439.616H495.892L505.843 566.182H534.391C554.329 441.363 531.926 381.324 531.926 381.324Z" fill="#8E716C"/>
<path d="M479.19 439.616H508.975" stroke="#282828" stroke-width="1.14669" stroke-linecap="round" stroke-linejoin="round"/>
<path d="M503.717 265.652C502.895 265.647 556.509 273.07 565.356 334.198L537.535 338.46L531.926 384.608H454.315L438.906 299.345C438.906 299.345 456.101 274.702 488.028 265.652H503.717Z" fill="#56DFED"/>
<path d="M537.535 338.461L539.95 311.771" stroke="#282828" stroke-width="1.14669" stroke-linecap="round" stroke-linejoin="round"/>
<path d="M508.811 266.526V245.293H483.93V266.775C482.657 267.155 480.537 267.922 477.246 269.486L496.652 281.046L516.491 269.485C516.491 269.485 513.342 267.655 508.811 266.526Z" fill="#FFB1A5"/>
<path d="M483.699 247.887C483.699 247.887 488.169 259.753 500.097 258.728C511.061 257.787 509.316 241.343 509.316 241.343L483.699 247.887Z" fill="#282828"/>
<path d="M472.848 232.107C468.948 235.644 460.227 222.227 463.996 218.46C467.764 214.693 470.639 220.604 470.639 220.604L472.321 224.608L473.591 230.033L473.892 231.453L472.848 232.107Z" fill="#FFB1A5"/>
<path d="M465.816 223.213C465.816 223.213 468.769 221.885 471.391 226.164" stroke="#282828" stroke-width="0.92349" stroke-linecap="round" stroke-linejoin="round"/>
<path d="M515.691 231.919C519.278 235.773 529.102 223.141 525.666 219.069C522.229 214.997 518.866 220.643 518.866 220.643L516.85 224.491L515.127 229.789L514.706 231.179L515.691 231.919Z" fill="#FFB1A5"/>
<path d="M523.449 223.651C523.449 223.651 520.62 222.078 517.645 226.12" stroke="#282828" stroke-width="0.92349" stroke-linecap="round" stroke-linejoin="round"/>
<path d="M466.008 205.661C466.008 223.422 479.549 231.844 496.253 231.844C512.958 231.844 526.5 223.422 526.5 205.661C526.5 187.9 512.958 175.816 496.253 175.816C479.549 175.816 466.008 187.9 466.008 205.661Z" fill="#282828"/>
<path d="M470.118 206.896C470.118 217.799 471.66 227.209 473.197 233.887C474.703 240.425 478.939 244.994 484.926 248.671L486.017 249.342C492.352 253.233 500.537 253.324 506.969 249.574C513.457 245.792 517.998 240.805 519.396 233.79C521.938 221.029 522.217 206.896 522.217 206.896C522.217 206.896 524.636 179.371 496.539 179.906C468.443 180.441 470.118 206.896 470.118 206.896Z" fill="#FFB1A5"/>
<path d="M521.855 216.022C521.855 216.022 510.622 200.836 513.213 185.451C513.213 185.451 521.551 189.646 523.723 200.476C525.894 211.305 521.855 216.022 521.855 216.022Z" fill="#282828"/>
<path d="M471.302 222.187C471.302 222.187 483.149 199.803 480.558 184.418C480.558 184.418 473.037 185.413 469.336 200.476C466.7 211.202 471.302 222.187 471.302 222.187Z" fill="#282828"/>
<path d="M520.148 191.838C520.148 191.838 509.658 210.47 470.194 207.767C469.858 207.542 471.221 181.032 491.429 179.286C491.429 179.286 513.511 176.65 520.148 191.838Z" fill="#282828"/>
<path d="M504.649 165.62C504.649 176.026 496.213 184.462 485.807 184.462C475.4 184.462 466.964 176.026 466.964 165.62C466.964 155.213 475.4 146.777 485.807 146.777C496.213 146.777 504.649 155.213 504.649 165.62Z" fill="#282828"/>
<path d="M498.833 225.665V229.473C498.833 229.699 498.877 229.915 498.956 230.113C499.268 230.891 500.167 231.265 500.979 231.05L502.726 230.586" stroke="#282828" stroke-width="1.14576" stroke-linecap="round" stroke-linejoin="round"/>
<path d="M506.76 210.893L520.243 214.166C520.243 214.166 519.629 210.613 514.114 209.322C508.598 208.03 506.76 210.893 506.76 210.893Z" fill="#282828"/>
<path d="M494.366 210.893L480.403 214.166C480.403 214.166 481.038 210.613 486.75 209.322C492.462 208.03 494.366 210.893 494.366 210.893Z" fill="#282828"/>
<path d="M491.417 235.482H509.575C509.575 235.482 501.527 245.273 491.417 235.482Z" fill="white"/>
<path d="M498.084 222.064C498.084 227.594 493.601 232.078 488.07 232.078C482.54 232.078 478.057 227.594 478.057 222.064C478.057 216.534 482.54 212.05 488.07 212.05C493.601 212.05 498.084 216.534 498.084 222.064Z" stroke="#F5A623" stroke-width="1.24806" stroke-miterlimit="10"/>
<path d="M522.685 222.064C522.685 227.594 518.201 232.078 512.671 232.078C507.141 232.078 502.657 227.594 502.657 222.064C502.657 216.534 507.141 212.05 512.671 212.05C518.201 212.05 522.685 216.534 522.685 222.064Z" stroke="#F5A623" stroke-width="1.24806" stroke-miterlimit="10"/>
<path d="M498.084 222.064C498.084 222.064 500.457 219.85 502.657 222.064" stroke="#F5A623" stroke-width="1.24806" stroke-miterlimit="10"/>
<path d="M478.057 222.064L474.902 221.984" stroke="#F5A623" stroke-width="1.24806" stroke-miterlimit="10"/>
<path d="M522.685 222.064L525.859 221.984" stroke="#F5A623" stroke-width="1.24806" stroke-miterlimit="10"/>
<path d="M491.416 221.151C491.416 222.449 490.362 223.499 489.061 223.499C487.76 223.499 486.706 222.449 486.706 221.151C486.706 219.854 487.76 218.802 489.061 218.802C490.362 218.802 491.416 219.854 491.416 221.151Z" fill="#282828"/>
<path d="M513.741 221.151C513.741 222.449 512.687 223.499 511.386 223.499C510.085 223.499 509.031 222.449 509.031 221.151C509.031 219.854 510.085 218.802 511.386 218.802C512.687 218.802 513.741 219.854 513.741 221.151Z" fill="#282828"/>
<path d="M276.563 210.773C271.664 205.313 267.688 198.898 264.212 189.841C260.48 180.117 249.229 184.412 249.229 184.412C249.229 184.412 239.439 172.491 225.311 177.113C211.183 181.735 206.506 192.002 206.54 204.059C206.573 216.116 197.146 218.255 190.222 232.389C177.999 257.341 200.246 277.487 239.576 270.678L239.619 270.294C243.538 271.37 248.317 271.757 254.125 271.256C301.483 267.169 295.971 232.402 276.563 210.773Z" fill="#282828"/>
<path d="M289.882 381.28L254.787 376.608L255.107 372.531L214.06 377.997C214.06 377.997 191.656 438.036 211.594 562.855H240.143L250.094 436.29H253.743L264.018 562.855H292.567C312.504 438.036 289.882 381.28 289.882 381.28Z" fill="#282828"/>
<path d="M260.465 274.187H235.583V241.967H260.465V274.187Z" fill="#FFB1A5"/>
<path d="M231.953 239.957C231.953 239.957 238.879 253.781 247.399 255.939C249.676 256.515 252.107 256.317 254.302 255.539C257.509 254.403 261.576 249.621 262.268 244.33L262.589 241.308C262.589 241.308 247.426 249.563 231.953 239.957Z" fill="#282828"/>
<path d="M237.065 268.882C237.887 268.878 189.477 269.745 180.63 330.872L208.45 335.133L214.06 381.281H291.671L307.08 296.018C307.08 296.018 296.125 277.545 264.198 268.496L237.065 268.882Z" fill="#F7F4B4"/>
<path d="M213.403 276.272C213.403 276.272 220.245 285.354 248.276 285.354C276.047 285.354 283.149 275.795 283.149 275.795C283.149 275.795 266.778 266.648 247.78 263.689C247.78 263.689 230.817 266.711 213.403 276.272Z" fill="#FFB1A5"/>
<path d="M251.591 424.639C251.816 425.685 172.985 297.975 167.466 306.512C166.963 307.291 155.712 320.632 157.555 326.186C162.899 342.286 243.117 431.424 243.117 431.424L251.591 424.639Z" fill="#FFB1A5"/>
<path d="M243.117 431.424C243.117 431.424 256.812 453.013 273.241 440.674C274.323 439.861 274.692 438.388 274.109 437.166L274.031 437.003C273.387 435.656 271.821 435.072 270.421 435.595C267.015 436.866 260.713 437.807 256.559 429.944C256.559 429.944 258.403 427.622 263.412 430.395C264.701 431.108 266.329 430.502 266.801 429.106C267.124 428.155 266.807 427.111 266.017 426.489C262.971 424.09 255.098 418.852 248.066 422.289L243.117 431.424Z" fill="#FFB1A5"/>
<path d="M156.728 450.741C155.966 451.491 215.897 332.562 205.732 332.474C205.141 332.694 186.814 329.61 185.37 331.759C175.872 345.811 146.46 447.22 146.46 447.22L156.728 450.741Z" fill="#FFB1A5"/>
<path d="M146.46 447.22C146.46 447.22 135.566 470.349 154.786 477.612C156.051 478.091 157.494 477.613 158.213 476.466L158.309 476.313C159.102 475.048 158.755 473.412 157.564 472.511C154.666 470.315 150.496 465.498 154.91 457.778C154.91 457.778 157.859 458.091 158.2 463.806C158.288 465.277 159.673 466.326 161.104 465.978C162.081 465.741 162.792 464.914 162.894 463.914C163.288 460.057 163.494 450.603 156.825 446.506L146.46 447.22Z" fill="#FFB1A5"/>
<path d="M267.801 224.998C272.255 227.806 278.516 213.08 274.152 210.023C269.787 206.967 267.982 213.285 267.982 213.285L267.019 217.521L266.71 223.084L266.659 224.535L267.801 224.998Z" fill="#FFB1A5"/>
<path d="M273.182 215.019C273.182 215.019 270.045 214.224 268.204 218.893" stroke="#282828" stroke-width="0.92349" stroke-linecap="round" stroke-linejoin="round"/>
<path d="M222.308 232.595C219.444 237.013 207.578 226.276 210.256 221.67C212.934 217.064 217.226 222.04 217.226 222.04L219.878 225.481L222.493 230.4L223.15 231.696L222.308 232.595Z" fill="#FFB1A5"/>
<path d="M213.233 225.798C213.233 225.798 215.747 223.759 219.378 227.224" stroke="#282828" stroke-width="0.92349" stroke-linecap="round" stroke-linejoin="round"/>
<path d="M269.951 197.767C273.031 215.259 261.155 225.903 244.704 228.799C228.254 231.695 213.457 225.747 210.377 208.255C207.296 190.762 218.537 176.514 234.987 173.618C251.438 170.722 266.87 180.274 269.951 197.767Z" fill="#282828"/>
<path d="M266.118 199.698C268.009 210.435 268.124 219.969 267.767 226.812C267.418 233.513 264.038 238.747 258.779 243.407L257.822 244.256C252.257 249.186 244.213 250.695 237.227 248.117L237.227 248.116C230.182 245.517 224.844 241.393 222.25 234.727C217.534 222.6 214.809 208.73 214.809 208.73C214.809 208.73 207.653 182.041 235.417 177.696C263.181 173.352 266.118 199.698 266.118 199.698Z" fill="#FFB1A5"/>
<path d="M241.511 221.492L241.904 223.72C241.943 223.941 242.023 224.146 242.136 224.327C242.578 225.038 243.527 225.248 244.29 224.895L245.93 224.138" stroke="#282828" stroke-width="1.1439" stroke-linecap="round" stroke-linejoin="round"/>
<path d="M244.69 205.782L260.025 206.675C260.025 206.675 258.69 203.009 252.425 202.695C246.161 202.38 244.69 205.782 244.69 205.782Z" fill="#282828"/>
<path d="M236.96 207.143L222.663 213.253C222.663 213.253 222.675 209.35 228.533 206.901C234.391 204.453 236.96 207.143 236.96 207.143Z" fill="#282828"/>
<path d="M234.018 230.679L254.373 227.096C254.373 227.096 253.922 232.942 244.692 234.567C237.662 235.804 234.018 230.679 234.018 230.679Z" fill="white"/>
<path d="M216.747 217.654C216.747 217.654 225.176 200.751 219.956 186.048C219.956 186.048 212.473 191.626 212.213 202.668C211.952 213.71 216.747 217.654 216.747 217.654Z" fill="#282828"/>
<path d="M267.631 208.182C267.631 208.182 252.054 194.97 251.938 179.368C251.938 179.368 261.758 182.949 265.775 193.238C269.792 203.527 267.631 208.182 267.631 208.182Z" fill="#282828"/>
<path d="M213.424 193.35C213.424 193.35 229.123 208.179 267.52 198.675C267.52 198.675 258.795 175.124 239.532 176.01C239.532 176.01 217.326 177.242 213.424 193.35Z" fill="#282828"/>
<path d="M233.228 217.221C233.452 218.495 232.596 219.71 231.315 219.935C230.034 220.161 228.814 219.311 228.59 218.038C228.366 216.764 229.222 215.549 230.503 215.324C231.784 215.098 233.003 215.948 233.228 217.221Z" fill="#282828"/>
<path d="M255.215 213.35C255.439 214.623 254.582 215.839 253.301 216.064C252.02 216.29 250.8 215.44 250.576 214.167C250.352 212.893 251.208 211.678 252.489 211.453C253.77 211.227 254.99 212.077 255.215 213.35Z" fill="#282828"/>
<path d="M222.296 403.204C222.296 403.204 236.289 436.067 255.349 429.15C274.409 422.232 299.87 376.62 299.87 376.62L284.314 305.926L237.524 380.384L222.296 403.204Z" fill="#FFB1A5"/>
<path d="M252.033 357.259C252.033 357.259 274.034 383.029 291.093 390.983L299.873 376.62L256.068 350.529L252.033 357.259Z" fill="#FFB1A5"/>
<path d="M174.104 331.303L242.572 375.658C242.572 375.658 262.38 381.683 254.935 404.399C249.132 422.105 238.795 424.978 238.795 424.978C238.795 424.978 185.805 382.07 156.117 346.058L174.104 331.303Z" fill="#FFB1A5"/>
<path d="M175.131 331.347C175.131 331.347 163.566 349.188 157.64 348.014C147.286 345.963 130.055 327.661 130.055 327.661C130.055 327.661 154.695 300.067 154.643 300.67C154.591 301.272 175.131 331.347 175.131 331.347Z" fill="#FFB1A5"/>
<path d="M175.131 331.347C173.978 329.847 171.045 308.697 169.739 300.874C169.424 298.987 167.391 297.799 165.466 298.378C164.213 298.755 162.482 299.838 162.482 301.916L161.657 319.09L175.131 331.347Z" fill="#FFB1A5"/>
<path d="M164.506 312.377L145.492 288.848C144.265 287.263 141.877 286.976 140.296 288.224C138.929 289.303 138.634 291.178 139.608 292.606L152.135 310.977L164.506 312.377Z" fill="#FFB1A5"/>
<path d="M148.934 308.169L131.954 293.145C130.502 291.811 128.176 291.867 126.828 293.267C125.659 294.482 125.61 296.323 126.712 297.614L143.366 316.524L148.934 308.169Z" fill="#FFB1A5"/>
<path d="M144.114 317.731L125.401 304.029C123.674 302.752 121.185 303.04 119.87 304.669C118.635 306.199 118.874 308.38 120.417 309.668L136.75 323.302L144.114 317.731Z" fill="#FFB1A5"/>
<path d="M130.055 327.661L117.029 320.082C115.744 319.061 115.51 317.286 116.493 316.022C117.433 314.813 119.19 314.461 120.594 315.199L136.75 323.302L130.055 327.661Z" fill="#FFB1A5"/>
<path d="M162.038 311.152C162.038 311.152 150.753 315.617 157.102 330.449" stroke="#282828" stroke-width="1.42476" stroke-linecap="round" stroke-linejoin="round"/>
<path d="M329.255 268.159C329.255 268.159 274.741 282.408 247.636 347.249C247.636 347.249 266.23 373.301 294.988 384.184L313.182 360.281C313.182 360.281 332.666 336.486 335.794 327.066C352.125 277.888 329.255 268.159 329.255 268.159Z" fill="#98EE6F"/>
<path d="M307.516 472.067L311.724 593.901L371.996 591.855L372.486 469.861L307.516 472.067Z" fill="#005683"/>
<path d="M438.382 467.622L442.457 589.461L382.185 591.508L373.411 469.828L438.382 467.622Z" fill="#005683"/>
<path d="M406.903 511.068L344.585 513.184L343.146 470.856L405.464 468.741L406.903 511.068Z" fill="#005683"/>
<path d="M353.288 512.888L396.272 511.428" stroke="#282828" stroke-width="1.29921" stroke-linecap="round" stroke-linejoin="round"/>
<path d="M472.847 360.003C477.987 401.161 475.067 431.376 478.739 507.306L442.817 510.035L432.625 368.019L472.847 360.003Z" fill="#FFB1A5"/>
<path d="M437.931 393.443C437.931 393.443 460.139 390.647 475.028 380.083L474.327 371.255L437.379 377.571L437.931 393.443Z" fill="#F3978E"/>
<path d="M397.868 267.386C397.868 267.386 469.231 282.779 485.105 372.159C485.105 372.159 450.984 388.35 416.059 383.07L422.846 352.765L397.868 267.386Z" fill="#98EE6F"/>
<path d="M329.25 267.962C308.165 279.699 295.17 294.755 295.17 294.755L305.747 481.245L440.982 476.652L434.233 290.996C434.233 290.996 416.619 274.893 397.868 267.389C381.941 261.014 344.24 259.62 329.25 267.962Z" fill="#98EE6F"/>
<path d="M400.519 356.587L392.144 356.872C384.069 357.146 377.299 350.822 377.024 342.746L376.243 319.749L413.863 318.471L414.645 341.469C414.919 349.544 408.594 356.313 400.519 356.587Z" stroke="#282828" stroke-width="1.29921" stroke-linecap="round" stroke-linejoin="round"/>
<path d="M437.577 383.033L437.258 321.92" stroke="#282828" stroke-width="1.29921" stroke-linecap="round" stroke-linejoin="round"/>
<path d="M300.061 377.518L295.341 324.694" stroke="#282828" stroke-width="1.29921" stroke-linecap="round" stroke-linejoin="round"/>
<path d="M383.533 260.977L381.923 213.621L338.267 215.103L339.876 262.46L327.082 268.826C327.082 268.826 330.797 288.35 363.045 287.69C395.294 287.031 397.869 267.389 397.869 267.389L383.533 260.977Z" fill="#FFB1A5"/>
<path d="M339.082 229.439C339.082 229.439 343.368 247.866 359.585 249.449C378.248 251.271 382.427 228.44 382.427 228.44C382.427 228.44 374.566 239.006 361.583 239.463C347.102 239.972 339.082 229.439 339.082 229.439Z" fill="#282828"/>
<path d="M326.518 202.541L317.607 175.501C317.022 173.282 315.731 169.904 316.412 166.503C317.54 160.877 322.817 149.7 334.529 153.131L338.248 163.813C338.248 163.813 326.955 167.53 324.122 183.223L326.518 202.541Z" fill="#282828"/>
<path d="M334.392 158.948C334.624 162.613 333.313 178.926 322.709 186.078C322.709 186.078 310.278 166.039 334.392 158.948Z" fill="#282828"/>
<path d="M334.529 153.13C334.529 153.13 339.982 131.18 365.862 139.413C381.526 144.396 386.769 152.958 389.306 159.166C390.149 161.228 390.786 164.56 390.864 166.574L388.256 195.169L360.468 159.355L338.249 163.813L334.529 153.13Z" fill="#282828"/>
<path d="M388.255 195.167C388.255 195.167 390.623 190.167 396.928 191.734C403.232 193.302 402.253 208.275 393.43 211.222C393.43 211.222 390.271 212.317 387.463 210.4C387.463 210.4 388.395 199.315 388.255 195.167Z" fill="#FFB1A5"/>
<path d="M396.349 197.045C396.349 197.045 391.096 195.963 388.398 203.831" stroke="#282828" stroke-width="1.29921" stroke-linecap="round" stroke-linejoin="round"/>
<path d="M326.516 202.54C326.516 202.54 323.037 198.239 317.279 201.246C311.521 204.253 315.999 218.575 325.268 219.362C325.268 219.362 328.597 219.682 330.874 217.158C330.874 217.158 327.357 206.605 326.516 202.54Z" fill="#FFB1A5"/>
<path d="M319.092 206.271C319.092 206.271 323.943 203.982 328.417 210.994" stroke="#282828" stroke-width="1.29921" stroke-linecap="round" stroke-linejoin="round"/>
<path d="M387.2 181.197C388.257 190.027 389.598 208.604 385.479 220.217C381.611 231.12 373.845 237.667 362.832 239.316C351.82 240.966 343.078 237.689 334.884 225.116C326.69 212.543 324.184 188.888 324.184 188.888C324.184 188.888 320.416 157.344 351.591 153.622C384.427 149.702 387.2 181.197 387.2 181.197Z" fill="#FFB1A5"/>
<path d="M355.021 198.321L355.893 205.621C355.93 205.935 356.026 206.229 356.169 206.491C356.731 207.521 358.037 207.89 359.127 207.456L361.47 206.523" stroke="#282828" stroke-width="1.29921" stroke-linecap="round" stroke-linejoin="round"/>
<path d="M348.418 213.974C348.418 213.974 351.491 215.795 358.894 214.911C365.626 214.107 369.572 211.447 369.572 211.447" stroke="#282828" stroke-width="1.29921" stroke-linecap="round" stroke-linejoin="round"/>
<path d="M353.955 195.754C354.751 202.415 349.997 208.458 343.336 209.254C336.676 210.049 330.632 205.294 329.836 198.634C329.041 191.974 333.795 185.93 340.455 185.135C347.116 184.339 353.16 189.094 353.955 195.754Z" stroke="white" stroke-width="1.81443" stroke-miterlimit="10"/>
<path d="M383.581 192.216C384.377 198.876 379.623 204.92 372.962 205.716C366.302 206.511 360.258 201.756 359.462 195.096C358.667 188.436 363.421 182.392 370.081 181.596C376.742 180.801 382.786 185.556 383.581 192.216Z" stroke="white" stroke-width="1.81443" stroke-miterlimit="10"/>
<path d="M353.955 195.754C353.955 195.754 356.493 192.747 359.462 195.096" stroke="white" stroke-width="1.81443" stroke-miterlimit="10"/>
<path d="M329.836 198.634L325.78 199.014" stroke="white" stroke-width="1.81443" stroke-miterlimit="10"/>
<path d="M383.581 192.216L388.087 191.603" stroke="white" stroke-width="1.81443" stroke-miterlimit="10"/>
<path d="M331.061 160.075C331.061 160.075 338.819 175.838 364.892 172.213C382.608 169.75 388.387 182.093 388.387 182.093C388.387 182.093 381.865 153.735 381.085 154.103C380.304 154.471 353.228 150.336 353.228 150.336L331.061 160.075Z" fill="#282828"/>
<path d="M345.398 195.935C345.583 197.482 344.463 198.888 342.895 199.075C341.327 199.262 339.907 198.16 339.722 196.613C339.537 195.065 340.658 193.659 342.226 193.472C343.793 193.285 345.213 194.387 345.398 195.935Z" fill="#282828"/>
<path d="M372.006 192.757C372.191 194.305 371.071 195.71 369.504 195.897C367.936 196.084 366.515 194.983 366.331 193.435C366.146 191.888 367.267 190.481 368.834 190.294C370.402 190.107 371.822 191.21 372.006 192.757Z" fill="#282828"/>
<path d="M359.804 176.372L379.474 179.023C379.474 179.023 377.968 173.774 369.929 172.761C361.891 171.747 359.804 176.372 359.804 176.372Z" fill="#282828"/>
<path d="M347.946 177.788L329.453 184.996C329.453 184.996 329.681 179.54 337.255 176.663C344.828 173.785 347.946 177.788 347.946 177.788Z" fill="#282828"/>
</g>
<defs>
<clipPath id="clip0_118_6947">
<rect width="752" height="564" fill="white"/>
</clipPath>
</defs>
</svg>
