<svg width="1920" height="487" viewBox="0 0 1920 487" fill="none" xmlns="http://www.w3.org/2000/svg">
<path d="M0 38.054L473.5 0L1247 38.054L1418 46.0951L1589 54.1363H1765.5L1920 38.054V487H960H0V38.054Z" fill="#98EE6F"/>
<path d="M1430.83 423H1383.41V409.848L1404.05 392.184C1405.91 390.584 1407.47 389.144 1408.75 387.864C1410.03 386.52 1411.06 385.24 1411.83 384.024C1412.66 382.744 1413.23 381.496 1413.55 380.28C1413.94 379.064 1414.13 377.752 1414.13 376.344V375C1414.13 373.72 1413.87 372.6 1413.36 371.64C1412.85 370.68 1412.18 369.88 1411.35 369.24C1410.51 368.6 1409.55 368.12 1408.47 367.8C1407.44 367.48 1406.39 367.32 1405.3 367.32C1403.7 367.32 1402.29 367.576 1401.07 368.088C1399.92 368.6 1398.9 369.304 1398 370.2C1397.17 371.032 1396.47 372.024 1395.89 373.176C1395.31 374.264 1394.87 375.448 1394.55 376.728L1381.97 371.928C1382.74 369.624 1383.79 367.448 1385.14 365.4C1386.48 363.288 1388.15 361.464 1390.13 359.928C1392.18 358.328 1394.58 357.08 1397.33 356.184C1400.08 355.288 1403.19 354.84 1406.64 354.84C1410.29 354.84 1413.52 355.352 1416.34 356.376C1419.15 357.4 1421.52 358.808 1423.44 360.6C1425.43 362.392 1426.93 364.536 1427.95 367.032C1428.98 369.464 1429.49 372.12 1429.49 375C1429.49 377.88 1429.01 380.504 1428.05 382.872C1427.09 385.24 1425.78 387.48 1424.11 389.592C1422.51 391.64 1420.63 393.592 1418.45 395.448C1416.27 397.304 1414 399.192 1411.63 401.112L1399.15 410.904H1430.83V423ZM1464.3 424.152C1455.53 424.152 1449.04 421.112 1444.81 415.032C1440.59 408.952 1438.48 400.44 1438.48 389.496C1438.48 378.552 1440.59 370.04 1444.81 363.96C1449.04 357.88 1455.53 354.84 1464.3 354.84C1473.07 354.84 1479.56 357.88 1483.79 363.96C1488.01 370.04 1490.12 378.552 1490.12 389.496C1490.12 400.44 1488.01 408.952 1483.79 415.032C1479.56 421.112 1473.07 424.152 1464.3 424.152ZM1464.3 411.96C1468.14 411.96 1470.8 410.552 1472.27 407.736C1473.74 404.92 1474.48 400.952 1474.48 395.832V383.16C1474.48 378.04 1473.74 374.072 1472.27 371.256C1470.8 368.44 1468.14 367.032 1464.3 367.032C1460.46 367.032 1457.8 368.44 1456.33 371.256C1454.86 374.072 1454.12 378.04 1454.12 383.16V395.832C1454.12 400.952 1454.86 404.92 1456.33 407.736C1457.8 410.552 1460.46 411.96 1464.3 411.96Z" fill="#3D3D3D"/>
<path d="M1449.16 206.274H1416.36C1414.18 206.274 1412.1 205.41 1410.56 203.872C1409.02 202.334 1408.16 200.248 1408.16 198.073V189.872C1408.16 187.697 1409.02 185.611 1410.56 184.073C1412.1 182.535 1414.18 181.671 1416.36 181.671H1449.16C1451.34 181.671 1453.42 182.535 1454.96 184.073C1456.5 185.611 1457.36 187.697 1457.36 189.872V198.073C1457.36 200.248 1456.5 202.334 1454.96 203.872C1453.42 205.41 1451.34 206.274 1449.16 206.274ZM1416.36 189.872V198.073H1449.16V189.872H1416.36Z" fill="#3D3D3D"/>
<path d="M1481.96 136.565H1383.55C1381.38 136.565 1379.29 137.429 1377.75 138.967C1376.22 140.505 1375.35 142.591 1375.35 144.766V161.168C1375.35 163.343 1376.22 165.429 1377.75 166.967C1379.29 168.505 1381.38 169.369 1383.55 169.369V234.977C1383.55 237.152 1384.42 239.238 1385.95 240.776C1387.49 242.314 1389.58 243.178 1391.75 243.178H1473.76C1475.94 243.178 1478.02 242.314 1479.56 240.776C1481.1 239.238 1481.96 237.152 1481.96 234.977V169.369C1484.14 169.369 1486.23 168.505 1487.76 166.967C1489.3 165.429 1490.17 163.343 1490.17 161.168V144.766C1490.17 142.591 1489.3 140.505 1487.76 138.967C1486.23 137.429 1484.14 136.565 1481.96 136.565ZM1473.76 234.977H1391.75V169.369H1473.76V234.977ZM1481.96 161.168H1383.55V144.766H1481.96V161.168Z" fill="#3D3D3D"/>
<path d="M1493.02 110.136C1488.68 110.136 1484.43 111.424 1480.82 113.837C1477.21 116.249 1474.4 119.678 1472.74 123.69C1471.07 127.701 1470.64 132.116 1471.49 136.375C1472.33 140.634 1474.42 144.546 1477.49 147.616C1480.57 150.687 1484.48 152.778 1488.74 153.625C1492.99 154.472 1497.41 154.037 1501.42 152.375C1505.43 150.714 1508.86 147.9 1511.27 144.289C1513.69 140.679 1514.97 136.434 1514.97 132.092C1514.97 126.269 1512.66 120.684 1508.54 116.567C1504.43 112.45 1498.84 110.136 1493.02 110.136ZM1489.88 140.858L1482.04 133.017L1484.54 130.523L1489.88 135.871L1501.5 124.25L1504.01 126.738L1489.88 140.858Z" fill="#58AE30"/>
<path d="M1489.88 140.859L1482.04 133.018L1484.54 130.523L1489.88 135.869L1501.5 124.25L1504 126.736L1489.88 140.859Z" fill="white"/>
<path d="M1304.78 301V296.644H1308.02V280.228H1304.78V275.872H1316.73V280.228H1313.49V296.644H1316.73V301H1304.78ZM1327.62 301C1325.78 301 1324.37 300.532 1323.41 299.596C1322.48 298.66 1322.01 297.292 1322.01 295.492V286.24H1319.34V282.1H1320.68C1321.4 282.1 1321.89 281.932 1322.15 281.596C1322.42 281.236 1322.55 280.732 1322.55 280.084V276.988H1327.34V282.1H1331.08V286.24H1327.34V296.86H1330.79V301H1327.62ZM1342.52 301.432C1341.08 301.432 1339.8 301.204 1338.67 300.748C1337.54 300.268 1336.58 299.608 1335.79 298.768C1335.02 297.904 1334.44 296.86 1334.03 295.636C1333.64 294.412 1333.45 293.044 1333.45 291.532C1333.45 290.044 1333.64 288.7 1334.03 287.5C1334.41 286.276 1334.98 285.232 1335.72 284.368C1336.49 283.504 1337.42 282.844 1338.53 282.388C1339.63 281.908 1340.89 281.668 1342.31 281.668C1343.87 281.668 1345.2 281.932 1346.3 282.46C1347.43 282.988 1348.34 283.696 1349.04 284.584C1349.76 285.472 1350.28 286.504 1350.59 287.68C1350.92 288.832 1351.09 290.044 1351.09 291.316V292.9H1338.96V293.188C1338.96 294.436 1339.3 295.432 1339.97 296.176C1340.64 296.896 1341.7 297.256 1343.14 297.256C1344.24 297.256 1345.14 297.04 1345.84 296.608C1346.53 296.152 1347.18 295.612 1347.78 294.988L1350.44 298.3C1349.6 299.284 1348.5 300.052 1347.13 300.604C1345.79 301.156 1344.25 301.432 1342.52 301.432ZM1342.42 285.592C1341.34 285.592 1340.48 285.952 1339.86 286.672C1339.26 287.368 1338.96 288.304 1338.96 289.48V289.768H1345.58V289.444C1345.58 288.292 1345.32 287.368 1344.79 286.672C1344.29 285.952 1343.5 285.592 1342.42 285.592ZM1354.86 301V282.1H1360.18V285.304H1360.4C1360.74 284.32 1361.32 283.468 1362.16 282.748C1363 282.028 1364.17 281.668 1365.66 281.668C1367.6 281.668 1369.06 282.316 1370.05 283.612C1371.06 284.908 1371.56 286.756 1371.56 289.156V301H1366.23V289.588C1366.23 288.364 1366.04 287.464 1365.66 286.888C1365.27 286.288 1364.59 285.988 1363.6 285.988C1363.17 285.988 1362.75 286.048 1362.34 286.168C1361.94 286.264 1361.56 286.432 1361.23 286.672C1360.92 286.912 1360.66 287.212 1360.47 287.572C1360.28 287.908 1360.18 288.304 1360.18 288.76V301H1354.86ZM1382.71 301.432C1380.88 301.432 1379.35 301.144 1378.1 300.568C1376.85 299.968 1375.74 299.128 1374.75 298.048L1377.88 294.88C1378.56 295.624 1379.3 296.212 1380.12 296.644C1380.93 297.076 1381.86 297.292 1382.89 297.292C1383.94 297.292 1384.68 297.136 1385.08 296.824C1385.49 296.488 1385.7 296.044 1385.7 295.492C1385.7 294.604 1385.06 294.076 1383.79 293.908L1381.74 293.656C1377.49 293.128 1375.36 291.184 1375.36 287.824C1375.36 286.912 1375.53 286.084 1375.87 285.34C1376.23 284.572 1376.72 283.924 1377.34 283.396C1377.99 282.844 1378.76 282.424 1379.65 282.136C1380.56 281.824 1381.58 281.668 1382.71 281.668C1383.69 281.668 1384.56 281.74 1385.3 281.884C1386.07 282.004 1386.74 282.196 1387.32 282.46C1387.92 282.7 1388.46 283.012 1388.94 283.396C1389.44 283.756 1389.93 284.164 1390.41 284.62L1387.35 287.752C1386.75 287.152 1386.07 286.684 1385.3 286.348C1384.56 285.988 1383.79 285.808 1383 285.808C1382.08 285.808 1381.44 285.952 1381.05 286.24C1380.67 286.528 1380.48 286.912 1380.48 287.392C1380.48 287.896 1380.61 288.292 1380.87 288.58C1381.16 288.844 1381.69 289.036 1382.46 289.156L1384.58 289.444C1388.73 289.996 1390.81 291.892 1390.81 295.132C1390.81 296.044 1390.62 296.884 1390.23 297.652C1389.85 298.42 1389.3 299.092 1388.58 299.668C1387.88 300.22 1387.03 300.652 1386.02 300.964C1385.04 301.276 1383.93 301.432 1382.71 301.432ZM1410.83 301.432C1409.39 301.432 1408.11 301.204 1406.98 300.748C1405.85 300.268 1404.89 299.608 1404.1 298.768C1403.33 297.904 1402.74 296.86 1402.34 295.636C1401.95 294.412 1401.76 293.044 1401.76 291.532C1401.76 290.044 1401.95 288.7 1402.34 287.5C1402.72 286.276 1403.28 285.232 1404.03 284.368C1404.8 283.504 1405.73 282.844 1406.84 282.388C1407.94 281.908 1409.2 281.668 1410.62 281.668C1412.18 281.668 1413.51 281.932 1414.61 282.46C1415.74 282.988 1416.65 283.696 1417.35 284.584C1418.07 285.472 1418.58 286.504 1418.9 287.68C1419.23 288.832 1419.4 290.044 1419.4 291.316V292.9H1407.27V293.188C1407.27 294.436 1407.6 295.432 1408.28 296.176C1408.95 296.896 1410 297.256 1411.44 297.256C1412.55 297.256 1413.45 297.04 1414.14 296.608C1414.84 296.152 1415.49 295.612 1416.09 294.988L1418.75 298.3C1417.91 299.284 1416.81 300.052 1415.44 300.604C1414.1 301.156 1412.56 301.432 1410.83 301.432ZM1410.72 285.592C1409.64 285.592 1408.79 285.952 1408.17 286.672C1407.57 287.368 1407.27 288.304 1407.27 289.48V289.768H1413.89V289.444C1413.89 288.292 1413.63 287.368 1413.1 286.672C1412.6 285.952 1411.8 285.592 1410.72 285.592ZM1423.16 301V282.1H1428.49V285.304H1428.71C1429.04 284.32 1429.63 283.468 1430.47 282.748C1431.31 282.028 1432.48 281.668 1433.96 281.668C1435.91 281.668 1437.37 282.316 1438.36 283.612C1439.36 284.908 1439.87 286.756 1439.87 289.156V301H1434.54V289.588C1434.54 288.364 1434.35 287.464 1433.96 286.888C1433.58 286.288 1432.9 285.988 1431.91 285.988C1431.48 285.988 1431.06 286.048 1430.65 286.168C1430.24 286.264 1429.87 286.432 1429.54 286.672C1429.22 286.912 1428.97 287.212 1428.78 287.572C1428.59 287.908 1428.49 288.304 1428.49 288.76V301H1423.16ZM1451.23 301C1449.39 301 1447.98 300.532 1447.02 299.596C1446.09 298.66 1445.62 297.292 1445.62 295.492V286.24H1442.95V282.1H1444.29C1445.01 282.1 1445.5 281.932 1445.76 281.596C1446.03 281.236 1446.16 280.732 1446.16 280.084V276.988H1450.95V282.1H1454.69V286.24H1450.95V296.86H1454.4V301H1451.23ZM1458.39 301V282.1H1463.72V286.204H1463.9C1463.99 285.676 1464.16 285.172 1464.4 284.692C1464.64 284.188 1464.95 283.744 1465.34 283.36C1465.75 282.976 1466.23 282.676 1466.78 282.46C1467.33 282.22 1467.98 282.1 1468.72 282.1H1469.66V287.068H1468.33C1466.77 287.068 1465.6 287.272 1464.83 287.68C1464.09 288.088 1463.72 288.844 1463.72 289.948V301H1458.39ZM1480.65 301.432C1479.21 301.432 1477.93 301.204 1476.8 300.748C1475.67 300.268 1474.71 299.608 1473.92 298.768C1473.15 297.904 1472.57 296.86 1472.16 295.636C1471.77 294.412 1471.58 293.044 1471.58 291.532C1471.58 290.044 1471.77 288.7 1472.16 287.5C1472.54 286.276 1473.11 285.232 1473.85 284.368C1474.62 283.504 1475.55 282.844 1476.66 282.388C1477.76 281.908 1479.02 281.668 1480.44 281.668C1482 281.668 1483.33 281.932 1484.43 282.46C1485.56 282.988 1486.47 283.696 1487.17 284.584C1487.89 285.472 1488.41 286.504 1488.72 287.68C1489.05 288.832 1489.22 290.044 1489.22 291.316V292.9H1477.09V293.188C1477.09 294.436 1477.43 295.432 1478.1 296.176C1478.77 296.896 1479.83 297.256 1481.27 297.256C1482.37 297.256 1483.27 297.04 1483.97 296.608C1484.66 296.152 1485.31 295.612 1485.91 294.988L1488.57 298.3C1487.73 299.284 1486.63 300.052 1485.26 300.604C1483.92 301.156 1482.38 301.432 1480.65 301.432ZM1480.55 285.592C1479.47 285.592 1478.61 285.952 1477.99 286.672C1477.39 287.368 1477.09 288.304 1477.09 289.48V289.768H1483.71V289.444C1483.71 288.292 1483.45 287.368 1482.92 286.672C1482.42 285.952 1481.63 285.592 1480.55 285.592ZM1510.48 302.368C1510.48 303.376 1510.3 304.264 1509.94 305.032C1509.6 305.8 1509.04 306.448 1508.25 306.976C1507.46 307.528 1506.4 307.936 1505.08 308.2C1503.78 308.488 1502.18 308.632 1500.26 308.632C1498.62 308.632 1497.23 308.524 1496.08 308.308C1494.95 308.116 1494.03 307.828 1493.31 307.444C1492.61 307.084 1492.1 306.628 1491.76 306.076C1491.45 305.548 1491.29 304.936 1491.29 304.24C1491.29 303.184 1491.6 302.356 1492.23 301.756C1492.85 301.156 1493.72 300.784 1494.82 300.64V300.244C1493.91 300.076 1493.22 299.692 1492.77 299.092C1492.31 298.468 1492.08 297.748 1492.08 296.932C1492.08 296.428 1492.18 295.996 1492.37 295.636C1492.59 295.252 1492.85 294.928 1493.16 294.664C1493.5 294.376 1493.88 294.148 1494.32 293.98C1494.75 293.812 1495.18 293.68 1495.61 293.584V293.44C1494.46 292.912 1493.61 292.192 1493.06 291.28C1492.5 290.344 1492.23 289.264 1492.23 288.04C1492.23 286.12 1492.89 284.584 1494.21 283.432C1495.55 282.256 1497.59 281.668 1500.33 281.668C1501.58 281.668 1502.64 281.788 1503.53 282.028V281.308C1503.53 280.3 1503.77 279.58 1504.25 279.148C1504.76 278.692 1505.46 278.464 1506.38 278.464H1509.36V282.424H1505.19V282.64C1506.29 283.168 1507.11 283.9 1507.64 284.836C1508.16 285.748 1508.43 286.816 1508.43 288.04C1508.43 289.936 1507.76 291.46 1506.41 292.612C1505.09 293.74 1503.06 294.304 1500.33 294.304C1499.1 294.304 1497.99 294.172 1496.98 293.908C1496.43 294.268 1496.15 294.772 1496.15 295.42C1496.15 295.876 1496.32 296.236 1496.66 296.5C1497.02 296.74 1497.6 296.86 1498.42 296.86H1503.89C1506.2 296.86 1507.86 297.34 1508.9 298.3C1509.95 299.26 1510.48 300.616 1510.48 302.368ZM1505.48 303.088C1505.48 302.536 1505.26 302.116 1504.83 301.828C1504.4 301.54 1503.64 301.396 1502.56 301.396H1496.08C1495.84 301.636 1495.66 301.9 1495.54 302.188C1495.44 302.5 1495.4 302.8 1495.4 303.088C1495.4 303.784 1495.7 304.288 1496.3 304.6C1496.9 304.936 1497.92 305.104 1499.36 305.104H1501.52C1502.96 305.104 1503.98 304.936 1504.58 304.6C1505.18 304.288 1505.48 303.784 1505.48 303.088ZM1500.33 290.812C1501.38 290.812 1502.16 290.596 1502.67 290.164C1503.2 289.708 1503.46 289.06 1503.46 288.22V287.788C1503.46 286.948 1503.2 286.312 1502.67 285.88C1502.16 285.424 1501.38 285.196 1500.33 285.196C1499.27 285.196 1498.48 285.424 1497.95 285.88C1497.45 286.312 1497.2 286.948 1497.2 287.788V288.22C1497.2 289.06 1497.45 289.708 1497.95 290.164C1498.48 290.596 1499.27 290.812 1500.33 290.812ZM1523.87 297.832H1523.69C1523.52 298.312 1523.29 298.768 1523 299.2C1522.74 299.632 1522.39 300.016 1521.96 300.352C1521.53 300.688 1521.01 300.952 1520.41 301.144C1519.83 301.336 1519.16 301.432 1518.39 301.432C1516.45 301.432 1514.97 300.796 1513.97 299.524C1512.98 298.228 1512.49 296.38 1512.49 293.98V282.1H1517.82V293.512C1517.82 294.664 1518.02 295.552 1518.43 296.176C1518.84 296.8 1519.53 297.112 1520.52 297.112C1520.93 297.112 1521.33 297.052 1521.74 296.932C1522.15 296.812 1522.51 296.644 1522.82 296.428C1523.13 296.188 1523.39 295.9 1523.58 295.564C1523.77 295.228 1523.87 294.832 1523.87 294.376V282.1H1529.19V301H1523.87V297.832ZM1542.04 301.432C1540.6 301.432 1539.31 301.204 1538.18 300.748C1537.06 300.268 1536.1 299.608 1535.3 298.768C1534.54 297.904 1533.95 296.86 1533.54 295.636C1533.16 294.412 1532.96 293.044 1532.96 291.532C1532.96 290.044 1533.16 288.7 1533.54 287.5C1533.92 286.276 1534.49 285.232 1535.23 284.368C1536 283.504 1536.94 282.844 1538.04 282.388C1539.14 281.908 1540.4 281.668 1541.82 281.668C1543.38 281.668 1544.71 281.932 1545.82 282.46C1546.94 282.988 1547.86 283.696 1548.55 284.584C1549.27 285.472 1549.79 286.504 1550.1 287.68C1550.44 288.832 1550.6 290.044 1550.6 291.316V292.9H1538.47V293.188C1538.47 294.436 1538.81 295.432 1539.48 296.176C1540.15 296.896 1541.21 297.256 1542.65 297.256C1543.75 297.256 1544.65 297.04 1545.35 296.608C1546.04 296.152 1546.69 295.612 1547.29 294.988L1549.96 298.3C1549.12 299.284 1548.01 300.052 1546.64 300.604C1545.3 301.156 1543.76 301.432 1542.04 301.432ZM1541.93 285.592C1540.85 285.592 1540 285.952 1539.37 286.672C1538.77 287.368 1538.47 288.304 1538.47 289.48V289.768H1545.1V289.444C1545.1 288.292 1544.83 287.368 1544.3 286.672C1543.8 285.952 1543.01 285.592 1541.93 285.592ZM1560.77 301.432C1558.95 301.432 1557.41 301.144 1556.17 300.568C1554.92 299.968 1553.8 299.128 1552.82 298.048L1555.95 294.88C1556.62 295.624 1557.37 296.212 1558.18 296.644C1559 297.076 1559.92 297.292 1560.95 297.292C1562.01 297.292 1562.74 297.136 1563.15 296.824C1563.56 296.488 1563.76 296.044 1563.76 295.492C1563.76 294.604 1563.13 294.076 1561.85 293.908L1559.8 293.656C1555.55 293.128 1553.43 291.184 1553.43 287.824C1553.43 286.912 1553.6 286.084 1553.93 285.34C1554.29 284.572 1554.79 283.924 1555.41 283.396C1556.06 282.844 1556.83 282.424 1557.71 282.136C1558.63 281.824 1559.65 281.668 1560.77 281.668C1561.76 281.668 1562.62 281.74 1563.37 281.884C1564.13 282.004 1564.81 282.196 1565.38 282.46C1565.98 282.7 1566.52 283.012 1567 283.396C1567.51 283.756 1568 284.164 1568.48 284.62L1565.42 287.752C1564.82 287.152 1564.13 286.684 1563.37 286.348C1562.62 285.988 1561.85 285.808 1561.06 285.808C1560.15 285.808 1559.5 285.952 1559.12 286.24C1558.73 286.528 1558.54 286.912 1558.54 287.392C1558.54 287.896 1558.67 288.292 1558.94 288.58C1559.23 288.844 1559.75 289.036 1560.52 289.156L1562.65 289.444C1566.8 289.996 1568.87 291.892 1568.87 295.132C1568.87 296.044 1568.68 296.884 1568.3 297.652C1567.91 298.42 1567.36 299.092 1566.64 299.668C1565.95 300.22 1565.09 300.652 1564.09 300.964C1563.1 301.276 1562 301.432 1560.77 301.432Z" fill="#3D3D3D"/>
<path d="M448.738 424.152C444.77 424.152 441.218 423.672 438.082 422.712C435.01 421.688 432.418 420.312 430.306 418.584C428.194 416.856 426.562 414.808 425.41 412.44C424.322 410.072 423.778 407.48 423.778 404.664C423.778 400.376 424.962 396.888 427.33 394.2C429.698 391.448 432.898 389.528 436.93 388.44V387.672C433.666 386.456 430.978 384.6 428.866 382.104C426.818 379.608 425.794 376.408 425.794 372.504C425.794 369.944 426.274 367.576 427.234 365.4C428.258 363.224 429.73 361.368 431.65 359.832C433.634 358.232 436.034 357.016 438.85 356.184C441.73 355.288 445.026 354.84 448.738 354.84C452.45 354.84 455.714 355.288 458.53 356.184C461.41 357.016 463.81 358.232 465.73 359.832C467.714 361.368 469.186 363.224 470.146 365.4C471.17 367.576 471.682 369.944 471.682 372.504C471.682 376.408 470.626 379.608 468.514 382.104C466.466 384.6 463.81 386.456 460.546 387.672V388.44C464.578 389.528 467.778 391.448 470.146 394.2C472.514 396.888 473.698 400.376 473.698 404.664C473.698 407.48 473.122 410.072 471.97 412.44C470.882 414.808 469.282 416.856 467.17 418.584C465.058 420.312 462.434 421.688 459.298 422.712C456.226 423.672 452.706 424.152 448.738 424.152ZM448.738 413.112C451.938 413.112 454.37 412.376 456.034 410.904C457.762 409.368 458.626 407.256 458.626 404.568V402.648C458.626 399.96 457.762 397.88 456.034 396.408C454.37 394.872 451.938 394.104 448.738 394.104C445.538 394.104 443.074 394.872 441.346 396.408C439.682 397.88 438.85 399.96 438.85 402.648V404.568C438.85 407.256 439.682 409.368 441.346 410.904C443.074 412.376 445.538 413.112 448.738 413.112ZM448.738 383.544C451.81 383.544 454.146 382.84 455.746 381.432C457.346 379.96 458.146 377.976 458.146 375.48V373.944C458.146 371.448 457.346 369.496 455.746 368.088C454.146 366.616 451.81 365.88 448.738 365.88C445.666 365.88 443.33 366.616 441.73 368.088C440.13 369.496 439.33 371.448 439.33 373.944V375.48C439.33 377.976 440.13 379.96 441.73 381.432C443.33 382.84 445.666 383.544 448.738 383.544ZM502.652 382.488C506.236 382.488 508.828 381.816 510.428 380.472C512.092 379.064 512.924 377.336 512.924 375.288V374.616C512.924 372.184 512.124 370.232 510.524 368.76C508.988 367.288 506.78 366.552 503.9 366.552C501.212 366.552 498.684 367.256 496.316 368.664C493.948 370.008 491.932 371.96 490.268 374.52L481.244 366.072C482.524 364.408 483.9 362.904 485.372 361.56C486.844 360.152 488.508 358.968 490.364 358.008C492.22 356.984 494.3 356.216 496.604 355.704C498.908 355.128 501.5 354.84 504.38 354.84C507.964 354.84 511.196 355.256 514.076 356.088C517.02 356.92 519.516 358.136 521.564 359.736C523.676 361.272 525.276 363.128 526.364 365.304C527.516 367.48 528.092 369.912 528.092 372.6C528.092 374.712 527.74 376.632 527.036 378.36C526.396 380.088 525.468 381.592 524.252 382.872C523.1 384.152 521.756 385.208 520.22 386.04C518.684 386.808 517.052 387.352 515.324 387.672V388.248C517.308 388.632 519.132 389.272 520.796 390.168C522.524 391 523.996 392.088 525.212 393.432C526.492 394.776 527.484 396.376 528.188 398.232C528.892 400.024 529.244 402.072 529.244 404.376C529.244 407.384 528.636 410.104 527.42 412.536C526.204 414.968 524.476 417.048 522.236 418.776C519.996 420.504 517.308 421.848 514.172 422.808C511.036 423.704 507.58 424.152 503.804 424.152C500.412 424.152 497.404 423.8 494.78 423.096C492.156 422.392 489.852 421.464 487.868 420.312C485.948 419.096 484.252 417.72 482.78 416.184C481.372 414.648 480.124 413.016 479.036 411.288L489.692 403.032C491.164 405.784 492.956 408.056 495.068 409.848C497.244 411.576 500.156 412.44 503.804 412.44C507.068 412.44 509.596 411.64 511.388 410.04C513.244 408.376 514.172 406.136 514.172 403.32V402.744C514.172 399.992 513.116 397.944 511.004 396.6C508.956 395.192 506.108 394.488 502.46 394.488H496.412V382.488H502.652Z" fill="#3D3D3D"/>
<path d="M355.507 299V294.644H358.747V278.228H355.507V273.872H367.459V278.228H364.219V294.644H367.459V299H355.507ZM378.354 299C376.506 299 375.102 298.532 374.142 297.596C373.206 296.66 372.738 295.292 372.738 293.492V284.24H370.074V280.1H371.406C372.126 280.1 372.618 279.932 372.882 279.596C373.146 279.236 373.278 278.732 373.278 278.084V274.988H378.066V280.1H381.81V284.24H378.066V294.86H381.522V299H378.354ZM393.255 299.432C391.815 299.432 390.531 299.204 389.403 298.748C388.275 298.268 387.315 297.608 386.523 296.768C385.755 295.904 385.167 294.86 384.759 293.636C384.375 292.412 384.183 291.044 384.183 289.532C384.183 288.044 384.375 286.7 384.759 285.5C385.143 284.276 385.707 283.232 386.451 282.368C387.219 281.504 388.155 280.844 389.259 280.388C390.363 279.908 391.623 279.668 393.039 279.668C394.599 279.668 395.931 279.932 397.035 280.46C398.163 280.988 399.075 281.696 399.771 282.584C400.491 283.472 401.007 284.504 401.319 285.68C401.655 286.832 401.823 288.044 401.823 289.316V290.9H389.691V291.188C389.691 292.436 390.027 293.432 390.699 294.176C391.371 294.896 392.427 295.256 393.867 295.256C394.971 295.256 395.871 295.04 396.567 294.608C397.263 294.152 397.911 293.612 398.511 292.988L401.175 296.3C400.335 297.284 399.231 298.052 397.863 298.604C396.519 299.156 394.983 299.432 393.255 299.432ZM393.147 283.592C392.067 283.592 391.215 283.952 390.591 284.672C389.991 285.368 389.691 286.304 389.691 287.48V287.768H396.315V287.444C396.315 286.292 396.051 285.368 395.523 284.672C395.019 283.952 394.227 283.592 393.147 283.592ZM405.586 299V280.1H410.914V283.304H411.13C411.466 282.32 412.054 281.468 412.894 280.748C413.734 280.028 414.898 279.668 416.386 279.668C418.33 279.668 419.794 280.316 420.778 281.612C421.786 282.908 422.29 284.756 422.29 287.156V299H416.962V287.588C416.962 286.364 416.77 285.464 416.386 284.888C416.002 284.288 415.318 283.988 414.334 283.988C413.902 283.988 413.482 284.048 413.074 284.168C412.666 284.264 412.294 284.432 411.958 284.672C411.646 284.912 411.394 285.212 411.202 285.572C411.01 285.908 410.914 286.304 410.914 286.76V299H405.586ZM433.439 299.432C431.615 299.432 430.079 299.144 428.831 298.568C427.583 297.968 426.467 297.128 425.483 296.048L428.615 292.88C429.287 293.624 430.031 294.212 430.847 294.644C431.663 295.076 432.587 295.292 433.619 295.292C434.675 295.292 435.407 295.136 435.815 294.824C436.223 294.488 436.427 294.044 436.427 293.492C436.427 292.604 435.791 292.076 434.519 291.908L432.467 291.656C428.219 291.128 426.095 289.184 426.095 285.824C426.095 284.912 426.263 284.084 426.599 283.34C426.959 282.572 427.451 281.924 428.075 281.396C428.723 280.844 429.491 280.424 430.379 280.136C431.291 279.824 432.311 279.668 433.439 279.668C434.423 279.668 435.287 279.74 436.031 279.884C436.799 280.004 437.471 280.196 438.047 280.46C438.647 280.7 439.187 281.012 439.667 281.396C440.171 281.756 440.663 282.164 441.143 282.62L438.083 285.752C437.483 285.152 436.799 284.684 436.031 284.348C435.287 283.988 434.519 283.808 433.727 283.808C432.815 283.808 432.167 283.952 431.783 284.24C431.399 284.528 431.207 284.912 431.207 285.392C431.207 285.896 431.339 286.292 431.603 286.58C431.891 286.844 432.419 287.036 433.187 287.156L435.311 287.444C439.463 287.996 441.539 289.892 441.539 293.132C441.539 294.044 441.347 294.884 440.963 295.652C440.579 296.42 440.027 297.092 439.307 297.668C438.611 298.22 437.759 298.652 436.751 298.964C435.767 299.276 434.663 299.432 433.439 299.432ZM453.679 280.1H459.007V283.268H459.187C459.451 282.212 460.051 281.348 460.987 280.676C461.947 280.004 463.039 279.668 464.263 279.668C466.663 279.668 468.475 280.508 469.699 282.188C470.923 283.868 471.535 286.316 471.535 289.532C471.535 292.748 470.923 295.208 469.699 296.912C468.475 298.592 466.663 299.432 464.263 299.432C463.639 299.432 463.051 299.336 462.499 299.144C461.947 298.976 461.443 298.736 460.987 298.424C460.555 298.088 460.183 297.704 459.871 297.272C459.559 296.816 459.331 296.336 459.187 295.832H459.007V306.2H453.679V280.1ZM462.499 295.112C463.507 295.112 464.335 294.764 464.983 294.068C465.655 293.348 465.991 292.388 465.991 291.188V287.912C465.991 286.712 465.655 285.764 464.983 285.068C464.335 284.348 463.507 283.988 462.499 283.988C461.491 283.988 460.651 284.24 459.979 284.744C459.331 285.224 459.007 285.896 459.007 286.76V292.34C459.007 293.204 459.331 293.888 459.979 294.392C460.651 294.872 461.491 295.112 462.499 295.112ZM483.466 299.432C482.026 299.432 480.742 299.204 479.614 298.748C478.486 298.268 477.526 297.608 476.734 296.768C475.966 295.904 475.378 294.86 474.97 293.636C474.586 292.412 474.394 291.044 474.394 289.532C474.394 288.044 474.586 286.7 474.97 285.5C475.354 284.276 475.918 283.232 476.662 282.368C477.43 281.504 478.366 280.844 479.47 280.388C480.574 279.908 481.834 279.668 483.25 279.668C484.81 279.668 486.142 279.932 487.246 280.46C488.374 280.988 489.286 281.696 489.982 282.584C490.702 283.472 491.218 284.504 491.53 285.68C491.866 286.832 492.034 288.044 492.034 289.316V290.9H479.902V291.188C479.902 292.436 480.238 293.432 480.91 294.176C481.582 294.896 482.638 295.256 484.078 295.256C485.182 295.256 486.082 295.04 486.778 294.608C487.474 294.152 488.122 293.612 488.722 292.988L491.386 296.3C490.546 297.284 489.442 298.052 488.074 298.604C486.73 299.156 485.194 299.432 483.466 299.432ZM483.358 283.592C482.278 283.592 481.426 283.952 480.802 284.672C480.202 285.368 479.902 286.304 479.902 287.48V287.768H486.526V287.444C486.526 286.292 486.262 285.368 485.734 284.672C485.23 283.952 484.438 283.592 483.358 283.592ZM495.797 299V280.1H501.125V284.204H501.305C501.401 283.676 501.569 283.172 501.809 282.692C502.049 282.188 502.361 281.744 502.745 281.36C503.153 280.976 503.633 280.676 504.185 280.46C504.737 280.22 505.385 280.1 506.129 280.1H507.065V285.068H505.733C504.173 285.068 503.009 285.272 502.241 285.68C501.497 286.088 501.125 286.844 501.125 287.948V299H495.797ZM521.803 295.832H521.623C521.479 296.336 521.251 296.816 520.939 297.272C520.627 297.704 520.243 298.088 519.787 298.424C519.355 298.736 518.851 298.976 518.275 299.144C517.723 299.336 517.147 299.432 516.547 299.432C514.147 299.432 512.335 298.592 511.111 296.912C509.887 295.208 509.275 292.748 509.275 289.532C509.275 286.316 509.887 283.868 511.111 282.188C512.335 280.508 514.147 279.668 516.547 279.668C517.771 279.668 518.851 280.004 519.787 280.676C520.747 281.348 521.359 282.212 521.623 283.268H521.803V272.36H527.131V299H521.803V295.832ZM518.311 295.112C519.319 295.112 520.147 294.872 520.795 294.392C521.467 293.888 521.803 293.204 521.803 292.34V286.76C521.803 285.896 521.467 285.224 520.795 284.744C520.147 284.24 519.319 283.988 518.311 283.988C517.303 283.988 516.463 284.348 515.791 285.068C515.143 285.764 514.819 286.712 514.819 287.912V291.188C514.819 292.388 515.143 293.348 515.791 294.068C516.463 294.764 517.303 295.112 518.311 295.112ZM534.777 278.084C533.697 278.084 532.905 277.844 532.401 277.364C531.921 276.86 531.681 276.224 531.681 275.456V274.664C531.681 273.896 531.921 273.272 532.401 272.792C532.905 272.288 533.697 272.036 534.777 272.036C535.857 272.036 536.637 272.288 537.117 272.792C537.621 273.272 537.873 273.896 537.873 274.664V275.456C537.873 276.224 537.621 276.86 537.117 277.364C536.637 277.844 535.857 278.084 534.777 278.084ZM532.113 280.1H537.441V299H532.113V280.1ZM554.006 295.832H553.826C553.682 296.336 553.454 296.816 553.142 297.272C552.83 297.704 552.446 298.088 551.99 298.424C551.558 298.736 551.054 298.976 550.478 299.144C549.926 299.336 549.35 299.432 548.75 299.432C546.35 299.432 544.538 298.592 543.314 296.912C542.09 295.208 541.478 292.748 541.478 289.532C541.478 286.316 542.09 283.868 543.314 282.188C544.538 280.508 546.35 279.668 548.75 279.668C549.974 279.668 551.054 280.004 551.99 280.676C552.95 281.348 553.562 282.212 553.826 283.268H554.006V272.36H559.334V299H554.006V295.832ZM550.514 295.112C551.522 295.112 552.35 294.872 552.998 294.392C553.67 293.888 554.006 293.204 554.006 292.34V286.76C554.006 285.896 553.67 285.224 552.998 284.744C552.35 284.24 551.522 283.988 550.514 283.988C549.506 283.988 548.666 284.348 547.994 285.068C547.346 285.764 547.022 286.712 547.022 287.912V291.188C547.022 292.388 547.346 293.348 547.994 294.068C548.666 294.764 549.506 295.112 550.514 295.112ZM571.984 299.432C570.592 299.432 569.344 299.204 568.24 298.748C567.16 298.292 566.236 297.632 565.468 296.768C564.724 295.904 564.148 294.86 563.74 293.636C563.332 292.412 563.128 291.044 563.128 289.532C563.128 288.02 563.332 286.652 563.74 285.428C564.148 284.204 564.724 283.172 565.468 282.332C566.236 281.468 567.16 280.808 568.24 280.352C569.344 279.896 570.592 279.668 571.984 279.668C573.376 279.668 574.612 279.896 575.692 280.352C576.796 280.808 577.72 281.468 578.464 282.332C579.232 283.172 579.82 284.204 580.228 285.428C580.636 286.652 580.84 288.02 580.84 289.532C580.84 291.044 580.636 292.412 580.228 293.636C579.82 294.86 579.232 295.904 578.464 296.768C577.72 297.632 576.796 298.292 575.692 298.748C574.612 299.204 573.376 299.432 571.984 299.432ZM571.984 295.22C573.04 295.22 573.856 294.896 574.432 294.248C575.008 293.6 575.296 292.676 575.296 291.476V287.624C575.296 286.424 575.008 285.5 574.432 284.852C573.856 284.204 573.04 283.88 571.984 283.88C570.928 283.88 570.112 284.204 569.536 284.852C568.96 285.5 568.672 286.424 568.672 287.624V291.476C568.672 292.676 568.96 293.6 569.536 294.248C570.112 294.896 570.928 295.22 571.984 295.22ZM591.044 299.432C589.22 299.432 587.684 299.144 586.436 298.568C585.188 297.968 584.072 297.128 583.088 296.048L586.22 292.88C586.892 293.624 587.636 294.212 588.452 294.644C589.268 295.076 590.192 295.292 591.224 295.292C592.28 295.292 593.012 295.136 593.42 294.824C593.828 294.488 594.032 294.044 594.032 293.492C594.032 292.604 593.396 292.076 592.124 291.908L590.072 291.656C585.824 291.128 583.7 289.184 583.7 285.824C583.7 284.912 583.868 284.084 584.204 283.34C584.564 282.572 585.056 281.924 585.68 281.396C586.328 280.844 587.096 280.424 587.984 280.136C588.896 279.824 589.916 279.668 591.044 279.668C592.028 279.668 592.892 279.74 593.636 279.884C594.404 280.004 595.076 280.196 595.652 280.46C596.252 280.7 596.792 281.012 597.272 281.396C597.776 281.756 598.268 282.164 598.748 282.62L595.688 285.752C595.088 285.152 594.404 284.684 593.636 284.348C592.892 283.988 592.124 283.808 591.332 283.808C590.42 283.808 589.772 283.952 589.388 284.24C589.004 284.528 588.812 284.912 588.812 285.392C588.812 285.896 588.944 286.292 589.208 286.58C589.496 286.844 590.024 287.036 590.792 287.156L592.916 287.444C597.068 287.996 599.144 289.892 599.144 293.132C599.144 294.044 598.952 294.884 598.568 295.652C598.184 296.42 597.632 297.092 596.912 297.668C596.216 298.22 595.364 298.652 594.356 298.964C593.372 299.276 592.268 299.432 591.044 299.432Z" fill="#3D3D3D"/>
<path d="M493.381 207.563H460.481C458.3 207.563 456.208 206.696 454.665 205.154C453.123 203.611 452.256 201.519 452.256 199.338V191.113C452.256 188.932 453.123 186.84 454.665 185.297C456.208 183.755 458.3 182.888 460.481 182.888H493.381C495.562 182.888 497.654 183.755 499.197 185.297C500.739 186.84 501.606 188.932 501.606 191.113V199.338C501.606 201.519 500.739 203.611 499.197 205.154C497.654 206.696 495.562 207.563 493.381 207.563ZM460.481 191.113V199.338H493.381V191.113H460.481Z" fill="#3D3D3D"/>
<path d="M526.281 137.651H427.582C425.4 137.651 423.308 138.518 421.766 140.06C420.223 141.602 419.357 143.695 419.357 145.876V162.326C419.357 164.507 420.223 166.599 421.766 168.142C423.308 169.684 425.4 170.551 427.582 170.551V236.35C427.582 238.532 428.448 240.624 429.991 242.166C431.533 243.709 433.625 244.575 435.807 244.575H518.056C520.237 244.575 522.33 243.709 523.872 242.166C525.414 240.624 526.281 238.532 526.281 236.35V170.551C528.462 170.551 530.554 169.684 532.097 168.142C533.639 166.599 534.506 164.507 534.506 162.326V145.876C534.506 143.695 533.639 141.602 532.097 140.06C530.554 138.518 528.462 137.651 526.281 137.651ZM518.056 236.35H435.807V170.551H518.056V236.35ZM526.281 162.326H427.582V145.876H526.281V162.326Z" fill="#3D3D3D"/>
<rect x="524.353" y="119.323" width="25.417" height="24.6468" fill="white"/>
<path d="M537.193 110.145C524.926 110.145 515.175 119.896 515.175 132.163C515.175 144.43 524.926 154.18 537.193 154.18C549.459 154.18 559.21 144.43 559.21 132.163C559.21 119.896 549.459 110.145 537.193 110.145ZM545.685 143.172L537.193 134.679L528.7 143.172L526.184 140.655L534.676 132.163L526.184 123.67L528.7 121.154L537.193 129.647L545.685 121.154L548.201 123.67L539.709 132.163L548.201 140.655L545.685 143.172Z" fill="#C92A2A"/>
<path d="M908.962 423V411.384H927.01V366.456H926.146L912.514 384.312L903.298 377.112L919.33 355.992H941.41V411.384H955.618V423H908.962ZM986.3 424.152C977.532 424.152 971.036 421.112 966.812 415.032C962.588 408.952 960.476 400.44 960.476 389.496C960.476 378.552 962.588 370.04 966.812 363.96C971.036 357.88 977.532 354.84 986.3 354.84C995.068 354.84 1001.56 357.88 1005.79 363.96C1010.01 370.04 1012.12 378.552 1012.12 389.496C1012.12 400.44 1010.01 408.952 1005.79 415.032C1001.56 421.112 995.068 424.152 986.3 424.152ZM986.3 411.96C990.14 411.96 992.796 410.552 994.268 407.736C995.74 404.92 996.476 400.952 996.476 395.832V383.16C996.476 378.04 995.74 374.072 994.268 371.256C992.796 368.44 990.14 367.032 986.3 367.032C982.46 367.032 979.804 368.44 978.332 371.256C976.86 374.072 976.124 378.04 976.124 383.16V395.832C976.124 400.952 976.86 404.92 978.332 407.736C979.804 410.552 982.46 411.96 986.3 411.96Z" fill="#3D3D3D"/>
<path d="M820.595 301.181V296.825H823.835V280.409H820.595V276.053H832.547V280.409H829.307V296.825H832.547V301.181H820.595ZM843.442 301.181C841.594 301.181 840.19 300.713 839.23 299.777C838.294 298.841 837.826 297.473 837.826 295.673V286.421H835.162V282.281H836.494C837.214 282.281 837.706 282.113 837.97 281.777C838.234 281.417 838.366 280.913 838.366 280.265V277.169H843.154V282.281H846.898V286.421H843.154V297.041H846.61V301.181H843.442ZM858.343 301.613C856.903 301.613 855.619 301.385 854.491 300.929C853.363 300.449 852.403 299.789 851.611 298.949C850.843 298.085 850.255 297.041 849.847 295.817C849.463 294.593 849.271 293.225 849.271 291.713C849.271 290.225 849.463 288.881 849.847 287.681C850.231 286.457 850.795 285.413 851.539 284.549C852.307 283.685 853.243 283.025 854.347 282.569C855.451 282.089 856.711 281.849 858.127 281.849C859.687 281.849 861.019 282.113 862.123 282.641C863.251 283.169 864.163 283.877 864.859 284.765C865.579 285.653 866.095 286.685 866.407 287.861C866.743 289.013 866.911 290.225 866.911 291.497V293.081H854.779V293.369C854.779 294.617 855.115 295.613 855.787 296.357C856.459 297.077 857.515 297.437 858.955 297.437C860.059 297.437 860.959 297.221 861.655 296.789C862.351 296.333 862.999 295.793 863.599 295.169L866.263 298.481C865.423 299.465 864.319 300.233 862.951 300.785C861.607 301.337 860.071 301.613 858.343 301.613ZM858.235 285.773C857.155 285.773 856.303 286.133 855.679 286.853C855.079 287.549 854.779 288.485 854.779 289.661V289.949H861.403V289.625C861.403 288.473 861.139 287.549 860.611 286.853C860.107 286.133 859.315 285.773 858.235 285.773ZM870.673 301.181V282.281H876.001V285.485H876.217C876.553 284.501 877.141 283.649 877.981 282.929C878.821 282.209 879.985 281.849 881.473 281.849C883.417 281.849 884.881 282.497 885.865 283.793C886.873 285.089 887.377 286.937 887.377 289.337V301.181H882.049V289.769C882.049 288.545 881.857 287.645 881.473 287.069C881.089 286.469 880.405 286.169 879.421 286.169C878.989 286.169 878.569 286.229 878.161 286.349C877.753 286.445 877.381 286.613 877.045 286.853C876.733 287.093 876.481 287.393 876.289 287.753C876.097 288.089 876.001 288.485 876.001 288.941V301.181H870.673ZM898.527 301.613C896.703 301.613 895.167 301.325 893.919 300.749C892.671 300.149 891.555 299.309 890.571 298.229L893.703 295.061C894.375 295.805 895.119 296.393 895.935 296.825C896.751 297.257 897.675 297.473 898.707 297.473C899.763 297.473 900.495 297.317 900.903 297.005C901.311 296.669 901.515 296.225 901.515 295.673C901.515 294.785 900.879 294.257 899.607 294.089L897.555 293.837C893.307 293.309 891.183 291.365 891.183 288.005C891.183 287.093 891.351 286.265 891.687 285.521C892.047 284.753 892.539 284.105 893.163 283.577C893.811 283.025 894.579 282.605 895.467 282.317C896.379 282.005 897.399 281.849 898.527 281.849C899.511 281.849 900.375 281.921 901.119 282.065C901.887 282.185 902.559 282.377 903.135 282.641C903.735 282.881 904.275 283.193 904.755 283.577C905.259 283.937 905.751 284.345 906.231 284.801L903.171 287.933C902.571 287.333 901.887 286.865 901.119 286.529C900.375 286.169 899.607 285.989 898.815 285.989C897.903 285.989 897.255 286.133 896.871 286.421C896.487 286.709 896.295 287.093 896.295 287.573C896.295 288.077 896.427 288.473 896.691 288.761C896.979 289.025 897.507 289.217 898.275 289.337L900.399 289.625C904.551 290.177 906.627 292.073 906.627 295.313C906.627 296.225 906.435 297.065 906.051 297.833C905.667 298.601 905.115 299.273 904.395 299.849C903.699 300.401 902.847 300.833 901.839 301.145C900.855 301.457 899.751 301.613 898.527 301.613ZM926.651 301.613C925.211 301.613 923.927 301.385 922.799 300.929C921.671 300.449 920.711 299.789 919.919 298.949C919.151 298.085 918.563 297.041 918.155 295.817C917.771 294.593 917.579 293.225 917.579 291.713C917.579 290.225 917.771 288.881 918.155 287.681C918.539 286.457 919.103 285.413 919.847 284.549C920.615 283.685 921.551 283.025 922.655 282.569C923.759 282.089 925.019 281.849 926.435 281.849C927.995 281.849 929.327 282.113 930.431 282.641C931.559 283.169 932.471 283.877 933.167 284.765C933.887 285.653 934.403 286.685 934.715 287.861C935.051 289.013 935.219 290.225 935.219 291.497V293.081H923.087V293.369C923.087 294.617 923.423 295.613 924.095 296.357C924.767 297.077 925.823 297.437 927.263 297.437C928.367 297.437 929.267 297.221 929.963 296.789C930.659 296.333 931.307 295.793 931.907 295.169L934.571 298.481C933.731 299.465 932.627 300.233 931.259 300.785C929.915 301.337 928.379 301.613 926.651 301.613ZM926.543 285.773C925.463 285.773 924.611 286.133 923.987 286.853C923.387 287.549 923.087 288.485 923.087 289.661V289.949H929.711V289.625C929.711 288.473 929.447 287.549 928.919 286.853C928.415 286.133 927.623 285.773 926.543 285.773ZM936.584 301.181L942.812 291.569L936.656 282.281H942.704L946.232 288.221H946.376L949.796 282.281H955.412L949.148 291.749L955.448 301.181H949.4L945.764 295.025H945.62L942.128 301.181H936.584ZM958.564 282.281H963.892V285.449H964.072C964.336 284.393 964.936 283.529 965.872 282.857C966.832 282.185 967.924 281.849 969.148 281.849C971.548 281.849 973.36 282.689 974.584 284.369C975.808 286.049 976.42 288.497 976.42 291.713C976.42 294.929 975.808 297.389 974.584 299.093C973.36 300.773 971.548 301.613 969.148 301.613C968.524 301.613 967.936 301.517 967.384 301.325C966.832 301.157 966.328 300.917 965.872 300.605C965.44 300.269 965.068 299.885 964.756 299.453C964.444 298.997 964.216 298.517 964.072 298.013H963.892V308.381H958.564V282.281ZM967.384 297.293C968.392 297.293 969.22 296.945 969.868 296.249C970.54 295.529 970.876 294.569 970.876 293.369V290.093C970.876 288.893 970.54 287.945 969.868 287.249C969.22 286.529 968.392 286.169 967.384 286.169C966.376 286.169 965.536 286.421 964.864 286.925C964.216 287.405 963.892 288.077 963.892 288.941V294.521C963.892 295.385 964.216 296.069 964.864 296.573C965.536 297.053 966.376 297.293 967.384 297.293ZM983.13 280.265C982.05 280.265 981.258 280.025 980.754 279.545C980.274 279.041 980.034 278.405 980.034 277.637V276.845C980.034 276.077 980.274 275.453 980.754 274.973C981.258 274.469 982.05 274.217 983.13 274.217C984.21 274.217 984.99 274.469 985.47 274.973C985.974 275.453 986.226 276.077 986.226 276.845V277.637C986.226 278.405 985.974 279.041 985.47 279.545C984.99 280.025 984.21 280.265 983.13 280.265ZM980.466 282.281H985.794V301.181H980.466V282.281ZM990.767 301.181V282.281H996.095V286.385H996.275C996.371 285.857 996.539 285.353 996.779 284.873C997.019 284.369 997.331 283.925 997.715 283.541C998.123 283.157 998.603 282.857 999.155 282.641C999.707 282.401 1000.36 282.281 1001.1 282.281H1002.04V287.249H1000.7C999.143 287.249 997.979 287.453 997.211 287.861C996.467 288.269 996.095 289.025 996.095 290.129V301.181H990.767ZM1018.8 301.181C1017.84 301.181 1017.03 300.881 1016.39 300.281C1015.76 299.681 1015.37 298.877 1015.2 297.869H1014.98C1014.69 299.093 1014.06 300.029 1013.07 300.677C1012.09 301.301 1010.88 301.613 1009.44 301.613C1007.54 301.613 1006.09 301.109 1005.08 300.101C1004.07 299.093 1003.57 297.761 1003.57 296.105C1003.57 294.113 1004.29 292.637 1005.73 291.677C1007.19 290.693 1009.17 290.201 1011.67 290.201H1014.66V289.013C1014.66 288.101 1014.42 287.381 1013.94 286.853C1013.46 286.301 1012.65 286.025 1011.53 286.025C1010.47 286.025 1009.63 286.253 1009.01 286.709C1008.38 287.165 1007.87 287.681 1007.46 288.257L1004.29 285.449C1005.06 284.321 1006.02 283.445 1007.17 282.821C1008.35 282.173 1009.93 281.849 1011.92 281.849C1014.61 281.849 1016.63 282.437 1017.97 283.613C1019.31 284.789 1019.99 286.505 1019.99 288.761V297.041H1021.75V301.181H1018.8ZM1011.42 297.905C1012.31 297.905 1013.06 297.713 1013.69 297.329C1014.33 296.945 1014.66 296.321 1014.66 295.457V293.225H1012.07C1009.98 293.225 1008.93 293.933 1008.93 295.349V295.889C1008.93 296.585 1009.15 297.101 1009.58 297.437C1010.01 297.749 1010.63 297.905 1011.42 297.905ZM1036.92 298.013H1036.74C1036.59 298.517 1036.37 298.997 1036.05 299.453C1035.74 299.885 1035.36 300.269 1034.9 300.605C1034.47 300.917 1033.97 301.157 1033.39 301.325C1032.84 301.517 1032.26 301.613 1031.66 301.613C1029.26 301.613 1027.45 300.773 1026.23 299.093C1025 297.389 1024.39 294.929 1024.39 291.713C1024.39 288.497 1025 286.049 1026.23 284.369C1027.45 282.689 1029.26 281.849 1031.66 281.849C1032.89 281.849 1033.97 282.185 1034.9 282.857C1035.86 283.529 1036.47 284.393 1036.74 285.449H1036.92V274.541H1042.25V301.181H1036.92V298.013ZM1033.43 297.293C1034.43 297.293 1035.26 297.053 1035.91 296.573C1036.58 296.069 1036.92 295.385 1036.92 294.521V288.941C1036.92 288.077 1036.58 287.405 1035.91 286.925C1035.26 286.421 1034.43 286.169 1033.43 286.169C1032.42 286.169 1031.58 286.529 1030.91 287.249C1030.26 287.945 1029.93 288.893 1029.93 290.093V293.369C1029.93 294.569 1030.26 295.529 1030.91 296.249C1031.58 296.945 1032.42 297.293 1033.43 297.293ZM1054.9 301.613C1053.5 301.613 1052.26 301.385 1051.15 300.929C1050.07 300.473 1049.15 299.813 1048.38 298.949C1047.64 298.085 1047.06 297.041 1046.65 295.817C1046.24 294.593 1046.04 293.225 1046.04 291.713C1046.04 290.201 1046.24 288.833 1046.65 287.609C1047.06 286.385 1047.64 285.353 1048.38 284.513C1049.15 283.649 1050.07 282.989 1051.15 282.533C1052.26 282.077 1053.5 281.849 1054.9 281.849C1056.29 281.849 1057.52 282.077 1058.6 282.533C1059.71 282.989 1060.63 283.649 1061.38 284.513C1062.14 285.353 1062.73 286.385 1063.14 287.609C1063.55 288.833 1063.75 290.201 1063.75 291.713C1063.75 293.225 1063.55 294.593 1063.14 295.817C1062.73 297.041 1062.14 298.085 1061.38 298.949C1060.63 299.813 1059.71 300.473 1058.6 300.929C1057.52 301.385 1056.29 301.613 1054.9 301.613ZM1054.9 297.401C1055.95 297.401 1056.77 297.077 1057.34 296.429C1057.92 295.781 1058.21 294.857 1058.21 293.657V289.805C1058.21 288.605 1057.92 287.681 1057.34 287.033C1056.77 286.385 1055.95 286.061 1054.9 286.061C1053.84 286.061 1053.02 286.385 1052.45 287.033C1051.87 287.681 1051.58 288.605 1051.58 289.805V293.657C1051.58 294.857 1051.87 295.781 1052.45 296.429C1053.02 297.077 1053.84 297.401 1054.9 297.401ZM1073.96 301.613C1072.13 301.613 1070.6 301.325 1069.35 300.749C1068.1 300.149 1066.98 299.309 1066 298.229L1069.13 295.061C1069.8 295.805 1070.55 296.393 1071.36 296.825C1072.18 297.257 1073.1 297.473 1074.14 297.473C1075.19 297.473 1075.92 297.317 1076.33 297.005C1076.74 296.669 1076.94 296.225 1076.94 295.673C1076.94 294.785 1076.31 294.257 1075.04 294.089L1072.98 293.837C1068.74 293.309 1066.61 291.365 1066.61 288.005C1066.61 287.093 1066.78 286.265 1067.12 285.521C1067.48 284.753 1067.97 284.105 1068.59 283.577C1069.24 283.025 1070.01 282.605 1070.9 282.317C1071.81 282.005 1072.83 281.849 1073.96 281.849C1074.94 281.849 1075.8 281.921 1076.55 282.065C1077.32 282.185 1077.99 282.377 1078.56 282.641C1079.16 282.881 1079.7 283.193 1080.18 283.577C1080.69 283.937 1081.18 284.345 1081.66 284.801L1078.6 287.933C1078 287.333 1077.32 286.865 1076.55 286.529C1075.8 286.169 1075.04 285.989 1074.24 285.989C1073.33 285.989 1072.68 286.133 1072.3 286.421C1071.92 286.709 1071.72 287.093 1071.72 287.573C1071.72 288.077 1071.86 288.473 1072.12 288.761C1072.41 289.025 1072.94 289.217 1073.7 289.337L1075.83 289.625C1079.98 290.177 1082.06 292.073 1082.06 295.313C1082.06 296.225 1081.86 297.065 1081.48 297.833C1081.1 298.601 1080.54 299.273 1079.82 299.849C1079.13 300.401 1078.28 300.833 1077.27 301.145C1076.28 301.457 1075.18 301.613 1073.96 301.613Z" fill="#3D3D3D"/>
<g clip-path="url(#clip0_118_6628)">
<path d="M966.68 203.021H934.374C932.232 203.021 930.178 202.174 928.663 200.668C927.149 199.161 926.298 197.117 926.298 194.986V186.952C926.298 184.821 927.149 182.777 928.663 181.271C930.178 179.764 932.232 178.917 934.374 178.917H966.68C968.822 178.917 970.876 179.764 972.391 181.271C973.905 182.777 974.756 184.821 974.756 186.952V194.986C974.756 197.117 973.905 199.161 972.391 200.668C970.876 202.174 968.822 203.021 966.68 203.021ZM934.374 186.952V194.986H966.68V186.952H934.374Z" fill="#3D3D3D"/>
<path d="M998.985 134.727H902.069C899.927 134.727 897.873 135.574 896.358 137.081C894.843 138.587 893.992 140.631 893.992 142.762V158.831C893.992 160.962 894.843 163.006 896.358 164.512C897.873 166.019 899.927 166.866 902.069 166.866V231.142C902.069 233.273 902.92 235.316 904.434 236.823C905.949 238.33 908.003 239.176 910.145 239.176H990.909C993.051 239.176 995.105 238.33 996.62 236.823C998.135 235.316 998.985 233.273 998.985 231.142V166.866C1001.13 166.866 1003.18 166.019 1004.7 164.512C1006.21 163.006 1007.06 160.962 1007.06 158.831V142.762C1007.06 140.631 1006.21 138.587 1004.7 137.081C1003.18 135.574 1001.13 134.727 998.985 134.727ZM990.909 231.142H910.145V166.866H990.909V231.142ZM998.985 158.831H902.069V142.762H998.985V158.831Z" fill="#3D3D3D"/>
<g clip-path="url(#clip1_118_6628)">
<path d="M195 293.031L275 277.114C355 261.197 515 229.363 675 234.635C835 240.306 995 282.088 1155 303.676C1315 324.865 1475 324.865 1555 324.865H1635V388.534H1555C1475 388.534 1315 388.534 1155 388.534C995 388.534 835 388.534 675 388.534C515 388.534 355 388.534 275 388.534H195V293.031Z" fill="#0099FF"/>
</g>
</g>
<rect x="999" y="118" width="23" height="26" fill="white"/>
<path d="M1009.93 111.264C998.1 111.264 988.521 120.814 988.521 132.581C988.521 144.348 998.1 153.899 1009.93 153.899C1021.78 153.899 1031.38 144.348 1031.38 132.581C1031.38 120.814 1021.78 111.264 1009.93 111.264ZM1017 142.622L1007.81 133.455V121.922H1012.09V131.707L1020.04 139.616L1017 142.622Z" fill="#676767"/>
<defs>
<clipPath id="clip0_118_6628">
<rect width="129.222" height="128.553" fill="white" transform="translate(885.916 118.658)"/>
</clipPath>
<clipPath id="clip1_118_6628">
<rect width="1440" height="318.342" fill="white" transform="translate(195 70.1918)"/>
</clipPath>
</defs>
</svg>
